<mxfile host="65bd71144e">
    <diagram id="HIP3nbAZw_EuaXWnEj3U" name="Page-1">
        <mxGraphModel dx="835" dy="570" grid="1" gridSize="10" guides="1" tooltips="1" connect="1" arrows="1" fold="1" page="1" pageScale="1" pageWidth="850" pageHeight="1100" math="0" shadow="0">
            <root>
                <mxCell id="0"/>
                <mxCell id="1" parent="0"/>
                <mxCell id="7" value="http://ics2o.mths.ca" style="swimlane;whiteSpace=wrap;html=1;" parent="1" vertex="1">
                    <mxGeometry x="30" y="10" width="770" height="480" as="geometry"/>
                </mxCell>
                <mxCell id="8" value="" style="shape=image;verticalLabelPosition=bottom;labelBackgroundColor=default;verticalAlign=top;aspect=fixed;imageAspect=0;image=data:image/jpeg,/9j/4AAQSkZJRgABAQAAAQABAAD/2wCEAAUDBAgICAgICAgICAgICAgICAgICAgICAgICAgICAgICAgIChALCAgOCQgIDRUNDhERExMTCAsWGBYSGBASExIBBQUFCAcIDwkJDhINDw4TEhISEhISEhISEhISHhISEhISEhIVEhISEhISEhISEhISEhISEhISEhISEhISEhISEv/AABEIAtAFAAMBIgACEQEDEQH/xAAdAAEAAwADAQEBAAAAAAAAAAAABgcIAQUJBAID/8QAZRAAAQMDAQMECwcOCgcFCAIDAAECAwQFEQYHEiEIEzFBFBciNlFVYXWVtNMyU3GBkZPRFRgjMzRCUnN0kpShsrMJNVRicoKxwtLwFiRDorXB1EVjg6TjJURWdqPDxPGE4SaF4v/EABoBAQACAwEAAAAAAAAAAAAAAAACBAEDBQb/xAA7EQEAAgEBBQYFAgUDBAIDAAAAAQIDEQQSITJRBRMVMUFxFDNSYZEigRaSobHRBkJiI1PB4fDxQ3Ki/9oADAMBAAIRAxEAPwCX7MdC2OWx2WWWy2iWWW0W2SWWS20T5JJH0UDnySPdErnvc5VVVVcqqqSLtfWDxFZvRVB7EbKO9+xeZbV6hTklPU48dd2ODoUpXRGe17p/xDZvRVB7Edr3T/iGzeiqD2JJgbO7r0Z3Koz2vdP+IbN6KoPYjte6f8Q2b0VQexJMB3dehuVRnte6f8Q2b0VQexHa90/4hs3oqg9iSYDu69DcqjPa90/4hs3oqg9iO17p/wAQ2b0VQexJMB3dehuVRnte6f8AENm9FUHsR2vdP+IbN6KoPYkmA7uvQ3Koz2vdP+IbN6KoPYjte6f8Q2b0VQexJMB3dehuVRnte6f8Q2b0VQexHa90/wCIbN6KoPYkmA7uvQ3Koz2vdP8AiGzeiqD2I7Xun/ENm9FUHsSTAd3XoblUZ7Xun/ENm9FUHsR2vdP+IbN6KoPYkmA7uvQ3Koz2vdP+IbN6KoPYjte6f8Q2b0VQexJMB3dehuVRnte6f8Q2b0VQexHa90/4hs3oqg9iSYDu69DcqjPa90/4hs3oqg9iO17p/wAQ2b0VQexJMB3dehuVRnte6f8AENm9FUHsR2vdP+IbN6KoPYkmA7uvQ3Koz2vdP+IbN6KoPYjte6f8Q2b0VQexJMB3dehuVRnte6f8Q2b0VQexHa90/wCIbN6KoPYkmA7uvQ3Koz2vdP8AiGzeiqD2I7Xun/ENm9FUHsSTAd3XoblUZ7Xun/ENm9FUHsR2vdP+IbN6KoPYkmA7uvQ3Koz2vdP+IbN6KoPYjte6f8Q2b0VQexJMB3dehuVRnte6f8Q2b0VQexHa90/4hs3oqg9iSYDu69DcqjPa90/4hs3oqg9iO17p/wAQ2b0VQexJMB3dehuVRnte6f8AENm9FUHsR2vdP+IbN6KoPYkmA7uvQ3Koz2vdP+IbN6KoPYjte6f8Q2b0VQexJMB3dehuVRnte6f8Q2b0VQexHa90/wCIbN6KoPYkmA7uvQ3Koz2vdP8AiGzeiqD2I7Xun/ENm9FUHsSTAd3XoblUZ7Xun/ENm9FUHsR2vdP+IbN6KoPYkmA7uvQ3Koz2vdP+IbN6KoPYjte6f8Q2b0VQexJMB3dehuVRnte6f8Q2b0VQexHa90/4hs3oqg9iSYDu69DcqjPa90/4hs3oqg9iO17p/wAQ2b0VQexJMB3dehuVRnte6f8AENm9FUHsR2vdP+IbN6KoPYkmA7uvQ3Koz2vdP+IbN6KoPYjte6f8Q2b0VQexJMB3dehuVRnte6f8Q2b0VQexHa90/wCIbN6KoPYkmA7uvQ3Koz2vdP8AiGzeiqD2I7Xun/ENm9FUHsSTAd3XoblUZ7Xun/ENm9FUHsR2vdP+IbN6KoPYkmA7uvQ3Koz2vdP+IbN6KoPYjte6f8Q2b0VQexJMB3dehuVRnte6f8Q2b0VQexHa90/4hs3oqg9iSYDu69DcqjPa90/4hs3oqg9iO17p/wAQ2b0VQexJMB3dehuVRnte6f8AENm9FUHsR2vdP+IbN6KoPYkmA7uvQ3Koz2vdP+IbN6KoPYjte6f8Q2b0VQexJMB3dehuVRnte6f8Q2b0VQexHa90/wCIbN6KoPYkmA7uvQ3Koz2vdP8AiGzeiqD2I7Xun/ENm9FUHsSTAd3XoblUZ7Xun/ENm9FUHsR2vdP+IbN6KoPYkmA7uvQ3Koz2vdP+IbN6KoPYjte6f8Q2b0VQexJMB3dehuVRnte6f8Q2b0VQexHa90/4hs3oqg9iSYDu69DcqjPa90/4hs3oqg9iO17p/wAQ2b0VQexJMB3dehuVRnte6f8AENm9FUHsR2vdP+IbN6KoPYkmA7uvQ3Koz2vdP+IbN6KoPYjte6f8Q2b0VQexJMB3dehuVRnte6f8Q2b0VQexHa90/wCIbN6KoPYkmA7uvQ3Koz2vdP8AiGzeiqD2I7Xun/ENm9FUHsSTAd3XoblUZ7Xun/ENm9FUHsR2vdP+IbN6KoPYkmA7uvQ3Koz2vdP+IbN6KoPYjte6f8Q2b0VQexJMB3dehuVRnte6f8Q2b0VQexHa90/4hs3oqg9iSYDu69DcqjPa90/4hs3oqg9iO17p/wAQ2b0VQexJMB3dejO5VGe17p/xDZvRVB7Edr3T/iGzeiqD2JJgO7r0Y3Koz2vdP+IbN6KoPYjte6f8Q2b0VQexJMB3dehuVRnte6f8Q2b0VQexHa90/wCIbN6KoPYkmA7uvQ3Koz2vdP8AiGzeiqD2I7Xun/ENm9FUHsSTAd3XoblUZ7Xun/ENm9FUHsR2vdP+IbN6KoPYkmA7uvQ3Koz2vdP+IbN6KoPYjte6f8Q2b0VQexJMB3dehuVRnte6f8Q2b0VQexHa90/4hs3oqg9iSYDu69DcqjPa90/4hs3oqg9iO17p/wAQ2b0VQexJMB3dehuVRnte6f8AENm9FUHsR2vdP+IbN6KoPYkmA7uvQ3Koz2vdP+IbN6KoPYjte6f8Q2b0VQexJMB3dehuVRnte6f8Q2b0VQexHa90/wCIbN6KoPYkmA7uvQ3Koz2vdP8AiGzeiqD2I7Xun/ENm9FUHsSTAd3XoblUZ7Xun/ENm9FUHsR2vdP+IbN6KoPYkmA7uvQ3Koz2vdP+IbN6KoPYjte6f8Q2b0VQexJMB3dehuVRnte6f8Q2b0VQexHa90/4hs3oqg9iSYDu69GdyqM9r3T/AIhs3oqg9iO17p/xDZvRVB7EkwHd16MblUZ7Xun/ABDZvRVB7Edr3T/iGzeiqD2JJgO7r0NyqM9r3T/iGzeiqD2I7Xun/ENm9FUHsSTAd3XoblUZ7Xun/ENm9FUHsR2vdP8AiGzeiqD2JJgO7r0NyqM9r3T/AIhs3oqg9iO17p/xDZvRVB7EkwHd16G5VGe17p/xDZvRVB7Edr3T/iGzeiqD2JJgO7r0NyqM9r3T/iGzeiqD2I7Xun/ENm9FUHsSTAd3XoblUZ7Xun/ENm9FUHsR2vdP+IbN6KoPYkmA7uvQ3Koz2vdP+IbN6KoPYjte6f8AENm9FUHsSTAd3XoblUZ7Xun/ABDZvRVB7Edr3T/iGzeiqD2JJgO7r0NyqM9r3T/iGzeiqD2I7Xun/ENm9FUHsSTAd3XoblUZ7Xun/ENm9FUHsSPbTdDWOKx3qWKy2iKWK0XKSKSO20UckcjKKdzJI3siRWPa5EVHJhUVE8BY5GdrPe/fvMt19QqCGSlYrPD0YtWIidDZR3v2LzLavUKckxGdlHe/YvMtq9QpyTEsfLDNOUABsSAAAAAAAAAAAAAAAAAAAAAAAAAAAAAAAAAAAAAAAAAAAAAAAAAAAAAAAAAAAAAAAAAAAAAAAAAAAAAAAAAAAAAAAAAAAAAAAAAAAAAAAAAAAAAAAAAAAAAAAAAAAAAAAAAAAAAAAAAAAAAAAAAAAAAAAAAAAAAAAAAAAAAAAAAAAAAAAAAAAAAAAAAAAAAAAAAAAAAAAAAAAAAAjO1nvfv3mW6+oVBJiM7We9+/eZbr6hUEMvJPsjflk2Ud79i8y2r1CnJMRnZR3v2LzLavUKckxjHywU5QAGxIAAAAAAAAAAAAAAAGdAABgAAAAAAAAAAAADUAAAAAAAAAAAAAAAAAAAAAAAAAAAAAAAAAAAAAAAAAAAAAAAAAcnAZAAGAAAAAoAAINQAAAAAAAAAAAAAAAAAAAAAAAAAAAAAAAAAAAAAAMgAAAyAAMAOTgAAAAAAAAAAAAAAAAAAAAAAAAAAAAAAAAAAAAAAAAAAAAAAAAAAAAAAAAAAAAAAAAARnaz3v37zLdfUKgkxGdrPe/fvMt19QqCGXkn2RvyybKO9+xeZbV6hTkmIzso737F5ltXqFOSYxj5YKcoADYkAAAAAAAAAAAdBrvWFBZaR1ZXzJFGmUY3pkmfjKRxM6XOO+e5GplVRGoiqqquERETKqq9SYPPnbbtBm1DdZ6pXOSjjc6KggVVRsdO1cNerOqWTG+5V45djoahT2zae5rw858mrLk3YWbrPlSXGWRzbVRwUsOVRslSizzOTqdutcjY3Z8riJQconVLXby1cL0z7h9NHufBhuFx8ZUzWKq8EVVVcIidKqvQiJ1qfdPY62NqSPpKpjFTO+6CVrcJ15VvA4k7Tltx3p/ZU37S0XoblTyo9kd5oWOYq4dU0WWuZlUTeWB6rlqIuVw5V4dBpDSWpKG60zaugqI6iB33zF7pjvwJGdLH+RfAp5rEr2Y6/uGn6xtVRSdyqolRTPVVhqY88WPb1Ox0OTii+HoLODtC9Z0vxhspmmJ4vRVU/WCM7M9bUd/t8dfRuVGqvNzQu+2U1Q1EV8MmOtEciovWitXrJMdylotGscYW4nXyAASZAAAAAGYdt+3m92W/V9tpGUC09MtNzazU8j5Ps1HTzv3nNmai93K7q6MEStvKa1HJNFG5lsRJJY2KqUsuURz0auPs/lIxyqu+67/DQ/8NoyvLH91U35RD+8aecybRkjJMb0+cqNrzveb02cnFfhOD9P6V+FT8noo8l6IAAZAAAAAAAA1AAAAAAAAAAAAAAABjUAAZAAAAAAITtD2p2WxKsddVp2SjUclJE1ZJ1RyKrFVqe5avhXwk2Uyvy4tNbkttu7GojZkfQ1CoiJ9ljRZadXL1q6PnU+CEq7XltjxzarXkmYrrD5NV8qasklYltoWU9O2RjnuqF5yeSNHIrmIjV3IlVEVM9109Bqmz3COqp4KmFyPiqIo5o3N9y5kjEe1UXrRUch5kZNt8j/AFR2fp9tLI7entczqVyKqK7sd6LLSvx1MRqviT8nUo7DtV75Ji066tOHJM20n1XMADsLQpnDajyhqmz6iqqGCmgqqCkSKCVqq5kq1KMR07mSplE3Fese6qcVi6UL81TeI7fQ1ddLjcpKeWdUcuEcrGqrGKvVvO3W/wBY827tXPqaieplVXS1E0k8jlXKufK90jlXwrlynM7Q2i1NIrOk+bRnvu+Tceg9vWn7ruxuqOwKh2E5ms+xorl6mzJ3Di1Dz62BaY+q2obdTObvQRzJVVKYy3mKX7M5r0Vfcve2OP8A8U9BVT/PT/lTbsOe+WutvRLDabRxAAXm0AAA+DUkzo6KsljXdkjpKmRjk47r2Qvc1yIvBcKiLx8B951mrf4vuH5DV+ryEb8ssW8pYa7e+rPHE36PRewLW5Lm06+3e+OpLlcJKqnSgqZUidFTsRJGPga12YomrlEe7r6zL5d/Ir75H+bKv97THm9nyXnJHGfNRpad6OLaYCA9K6AADLAAAAAMagADIAAAAAAAAAAAAAAAAAAM6AADAAAOh2i3eWgtFzroNznqShqaiLfarmc5FE57d9qKmW5TwoZL+ug1L73a/wBEl/6g1Jtp73L75prvV3nnXg4/aGW9LxFZmOCttFpi3BeH10Gpfe7X+iS/9QProNS+92v9El/6gpDBxg5/xOX6pV9+eq8ProNSe92v9El/6gfXQak97tf6JL/1BR+DlB8Tl+qTfl6C7BtWVd7ssNwrUhSollnY5IGLHHusciNRGuc5c468k8Kl5JHetSfj6n9tC2j0OzzM44meOsL9OWAAG9IAAAAAAAAAyMmAABkAAY1AAGQAAAADUAAAAAAAAAABy3pT4UMJXzbhqqOqqY2XiZGR1EzGt5ijXdayR7WplYPAhu1nSnwp/aeZupvu2s/Kqj9885Padpru6TorbRMxovHYNtb1FctRWyirbnJPSzyTNlidDStR6NpZ5Goro4UcndMavBU6DYBgbkw99lm/HVHqdSb5NnZtptSdZ14pbPOtZ1AAdHVvAAZAAAAAAAAAAAAAAAAAjO1nvfv3mW6+oVBJiM7We9+/eZbr6hUEMvJPsjflk2Ud79i8y2r1CnJMRnZR3v2LzLavUKckxjHywU5QAGxIAAAAAAAAAAHQbRlf9RrvzeecS1XHcx07/Yc25jy5webh6gyRtcite1HNcitc1eKOY5MOaqeBUVTzo2qaMmsV1qrfKjlZG9XU0ruPP0r1VYJMoiIrtzCOwnBzXp1HH7UrP6be8Ku0R5SlnJUSgdqajZXNY7ejnbSJIiOj7N3UWJHIvDKsSVG5++VnXg3VOxHtVj2o9rk7pr0RzVTwK1eCoeYcEzo3NkY5WPY5r2Paqtc17VRWua5OKORURc+Q2byeNuMV4ZHbrpIyG6tbuxyrhsdejU4KmeDanHS3OFwqpjoSHZ+elY3LepgvEcJfLt42BUtxhlrrNEymuDEV7qZmGQVmEyrUb0RTqmcKmEVeC44KlM7Fdhlfe5UnrGSUNuie5sj5WuZPM6N26+GJjky3DkVquXowqdPRuHwf54fGEROrCf5/UXL7Bjtfe8usNtsFZnV1OktNUVqpY6OggZBAxPctRN57lxmSR3S96r1qU5qHlOW2irKqjfbK576SpnpnPZLT7r3QSviVzUVc7qqxV4+EvpDzf2nr/wC3Lz51uPrkxr27LbFFYpwRzXmsRo1bpHlK2u41tPRdhVNL2RIjFqKianbDCmFVXyLve5TB2uquURpyhc5kc8tdI3PCljVY1VOGEldhM5MNDJSjtHLppwae/s14nKttWcfUuvRPDzlPwTw4RSc6H256eur2xNquxZ3YRIqtOZ3nfgskXuFX5DBYyYr2jliePEjPZ6gIvg8i/EvQvwHJkDkybaZ6KeGz3SZ0tBM5I6WeVVc+ilcuGM314upnKuN1fcrjHDKGv8/56Ts7PtFc1dY/C1S8WjVg3lVd913+Gh/4bRleWT7ppvx8P7xpYXKr77rv8ND/AMNoys6eZ0b2vauHMc17Vwi4c1couF4LxQ87mn/q2/8A2n+6lbmn3enldURwtdJNJHFGirl8r2xsT4XPVET5SG3Davpunesct5omvTpRJHP/AFsaqKYQ1XrG6XWRZbhXVNU5VVcSSLzbcrlUZE3DGN8jURDoToX7Tn/bH5bZ2jpD0n01q613NFWgr6WrXp3YpUV+Otebdh2E+A7s8x7ZcJ6aVk9PLJBNG5HMlie6N7VRcoqOauU6DcHJp2nO1Db3xVat+qdBuNqVRNxKiJ+eZqkaibqOduua9G8Ec3Pco9qFnZdvjJO7aNJbcebenSVsAFf7ctpcGmrfz6o2WtqN+OhplX3cjUTflkROKQR7zVXHSqtblFdwvZMkUrNp8obbTuxqkestXW6zw8/caqKnZ941y5kkXwRxp3Tl/UUdqflU0Ub3Nt1umqURcNlqHpAx6Y6UamXt+MzHqzUlbdaqSsr6h9RPIvFz17lqdTI2J3MbE6kRDqVOJl7Rvaf0cI/qqXzzPk0rFysqnKb9lp0b1q2rlVceRFjwqlkbP+URY7nI2CoWS2zuVEalTurC9y8OEzeDeKoiIpiFApqpt+Ws8Z1RjNaPV6gMejkRUVFRU3kVFyiovFFRU6U8pyZM5KO16WGoisNymV9LOu5b5pHKr4KhyojKVXL0wvXKNz0Ow3ocm7rP6Tt7PnjNXWFul9+NUV1LtGsdsqFpa+5U9LUNax6xS85vIx6ZY7uWKmFQ66LbDph7msbeqNznuRrWosuVcq4RPtfSqmXeWQv/APlEv5FRfu1KdgmcxzXsXdcxyOa5OlHNVFavwoqIc3L2hkpea6RwlXtmtE6PTasr4IY0lmnihjVEVHzSMiaueKd1IqIR+q2i2GJd2S7UKO8CTtcnytyh58X3UFdXyLJW1dRUvXGVmle/o6ERFXCInkOtE9p29KsztH2eltl1Hb677jraWoXj3MU0b34Tr5tF3sfEdqqYPMKlqpInI+KR8T06HxuVjk6+Dmqiml+TVtrulRXQWW485cGT5bBVY3qqBWNV32Z2fssGExvL3TeHFc4Tdg7Ri0xFo01Spn1nSWpj5bvcqekhfUVM8VPBGmXyyvRjGp8K9K+ROJ8esNQ0tqoqi4Vr+bp6dm89eG85V4MjYi+6kc7DUb1qpg7a5tNuGo6p0tQ9YqRjl7GomOXmYWZ7lXe+TKnS9fLjCcCxtW11w/eZ9GzJl3Gj9Zcp2zUrnR0EE9wcmU51MQwZRepX909FToVEIUvKyq88LLTY6s1cucfNmawce235p466Kk5rT6tg6P5UNrqXsjuFLPQq5URZmqk8CKq4TOO7RPLjgXrZ7nT1kLKilmjqIJEyyWJyOa5OvCp1+RTzJyWRsJ2pVWnK1m858tsnextbSqqqjWqqItTAn3s7EyuE4PRN1epzbOz9oWidMnGOrZTPPq3ygP40FXHURRTwvbLDPGyaKRiorZI5Go+N7VTparVRU+E/sdqFsABkCCbftL/VfT1xpWtV07Ilq6VERFd2RS/ZWtZn757UfF/4qk7GE6/Bg15Kb9ZrPqxaNYmHl6XdyN9T9hX9aN7sQ3SndBhV4dkwrz1M7+ljnmJ+OINtu0v9SL9caNrdyHnlnpkRN1vY8/2SNrE/BZvLH/4akZ09dJKKrpqyJVbJTTxTMVOlFjejuGfgPM0mcWSPtLnxO7b2emYPh0/dI62kpqyJU5upgjmbhcom+1HK3PkVVT4j7j1EWiY1dGOqiuWbqjsSyxUDHYluMyI9EXC8xD3b8p1tV26nwohjMt3lZao+qOoZoWO3oLcxtIziitWT3c7246MuVEVF62KVHGxXORrUVXOVGtROKqqrhERPDk83tmTfyz9uChltrZqjkPaY3Yrhd5GcZVbR06qn+zZh87mr1tV+4nwwmmEIlse02lpsluoUREcyna+ZURU3ppvskrsL0Krnf2n99pms6Sw26avq1yjO5hhTG/UTO+1xMTwr0qvUiKvDB28FYw4o14cNZW6RFK8XcXy8UtDC6orKiKmgZnMsz0Y3gmVRueLlx1JlSotQ8pfT1M5WwJVVqtVUVYY0YxfKx8nByGU9pWvbjfqt1TXTKrcrzNOxypBTszwZEzw+Fy8V4kVyc7N2naZ/RGkffi0W2ideDYdByp7M96Nloa+BqrxevNSYT+ixcqWpoXaHZ723NvrI5XomVgd9jqGp08Yncfkyec+T6bZXzU0rJ6eWSCaNyOZLE9zHscnFFa5q8CGPtLJE/q0mGI2iz05Os1Z/F9w/Iav1eQq3k0bXV1BTvoq9zEutIxHOemGpWwIqN7IRqcGyo5Wte1OGXNcnB2620tWfxfX/AJDV+ryHYrljJj3o6LO9Fq6w80C7+RX3yP8ANlX+8pikC7+RX3yP82Vf72mPO7N82vvClj5oXDty26z6cujbfFboatq0sNQskk8kbkdK6Vqs3WsVMIkaLn+cQP67Kr8S0v6XN7MivLMXOp3J4KCjRPjSRf7VUpVCzn2rLGSYi3DVO2S0Wni9QWrlEXwoinJ+Y+hv9FP7EP0p3a+ULkeSktvG3CfTVyhoIrfDVtlooqvnJJ5InIsk1TErEa1ioqIkCLn+cpX312VX4lpv0ub2Z0XLf74aTzPTeuXAog4Wfa8tbzEW9VO+S0T5vSzSV37NttBcHtbD2ZQUlY9m9lkXZFPHO5u+7GWt31TK44Ifn/Sm1r/2nb/02l9odHobvTtn/wAuUX/C4jzxL20bZbDFeGusN18s109XpnQXuiqH83T1lJPJhXc3DUwyvwnSu7G9VwnhPxer/Q0SZq6ympsJnE00bHY8KMVd5fiQ85NM6jrrZK+agqZKWaSJ0LpYsNk5t+N9rX4yzOE4twp8VdWzTvWSeWSZ7lVVfK9z3Kq8VVVcqqV/FJ05eKE7R9nofQbR7BO/m4rvQuf+CsyM/W/CfrJUxyOajmqjmuTLXNXKKi9CoqcFTyp4Ty+LW2G7Y6+w1McU8slTaZHI2opZHK9YWuX7fSucuY5GquVbndemUVM7rmzxdpazpeNGa7R1bsP4V9ZDTsWSeWKCNFwsk0jI2IuOjeeqJkqTbVtyorNTRtt6xV1fVQtlgblXQQxSNyyeo3V3l8kaKiqqLlUwpj/WWs7neJ3T3GsmqXqq4a52Io0Vc7kULcMjYi9SIb9o2+lOFf1T/RO+aI8m+O2RYOc5r6r0O/nGOeTGf6Xuf1kkpKmOZjZIZI5o3cWyRPbIx2OndexVR3xHmGTXZdtJuen6lktJM58Cubz9HI5zqeeNF4osee4fhVw9MKi/IVsfac6/qjg112jrD0NB0uiNS013oae4Ujt6GoZvImcujenB8b/5zXZRfgO6OvFotGsLMTrGoRrXWurVZI+cuVXHCqplkSd3PJjPuIW90qcF49HBSJ8oXaszTlE1lPuSXSqa5KWN+HMhanB1TK375repvQq4zwyhh2/Xepr6iSqrJ5KmoldvSTSuVznL/Y1uOCNTCIiIiIc/a9tjHO7XjLVlzbvCGn9RcqymY5UoLXJM1FVEfUypEjk8KNYiub8CnVUvKxn3k52zQozrWOqkV3xI5iIpmcIpzJ27NM+avOa/VunZ1t8sd4eyB0jrfVPXDIqvdax7s4RrZ0Xc3l8C4LYPL7Jqrkm7XJahzLDcpd96M/8AZ1RI77I9GIqupZHL7tUamWr04RU6i/svaE2mK39fX/Lbjza8LNLgA6yyAACJbae9u++aa71d551Hortp72775prvV3nnUcPtT5keyptPM0DyJqGCoulzbPBDO1tvarWzRMla1eyokyiPRURenj5TV3+jtu/kFD+iU/8AgMs8hf8AjW6ebm+tRGuS12dWs4uMestmCI3eLrP9Hbd/IKH9Ep/8Bx/o7bvF9D+iU/8AgO0UF7cr0hu0jo/jR0sULdyGOOFiKqoyJjY2Iq9Ko1iImVP7nBnXlQ7apbe51ltEu5Vq1OzaxnF9M13FIIF6G1Cp0v6WJjGHLlsM2auGmssWvFY1WxrrahZLLltdXRtmTppofs0/xxs9yvRwXClZVvKoszHKkdBXzNReD0WFmf6r1yhkCeZ8jnPe5z3uXLnvVXOcq9Kucq5VfhPwce/aWSZ/TpCrO0Wbb0zykdO1bmsmdUUDndC1Ee9Gnh3pI8o0t6210NTEyenljnhemWSxPa9jk8KOavyp0pk8xifbG9qFfpyra+F7pqKR7Uq6FzlWKVnW+NF4RVDUVcPTw4XKKqGzD2lOul4/eEqZ514vQM6jVep7faoWVFxqoqSGSRIWSS7266VzHvRibrV7pWxvX+qp/fTl5p7hSQVtK9JKepjbJE7r3XJ7lyJ0ORcoqeFCleXD/EFF54h9SrzpZ825jm9eLfe2ldYT3ty6W8d0fyy+zJVp3UFFcabsyiqY6il3nt59iqkeY1w/LnomMLwPNBVO1XUdf2JHQpWVCUcTnvjpmyubC18iq579xqojnKq9KnMp2pf/AHRqrxtFnoZcdcWan4TXShYvg7Jidj4dxVwp+LZryy1Lt2C6UL3eDshjF+LfVMr5DziyEX5fIZ8Uv9MHxE9HqCi56MKiplF6lRUymPCfzqZ2RMdJK9kcbE3nySOaxjGp0q57lRGp5VMD7L9sd6sMrOandV0WU52gqnufE5mcu5p65dTy4zhzeGcZa5O5XXW1a4pWaOudWkUsKVNmfOkMzUbLEksTXoyREVUR6b3hLuHbYyUmYjSYjVurm3on7JX/AKU2vxlb/wBNpfaH1W67UlSrkpqqmqFamXJBPFKrUVcIrkjcu6mfCeZWTudO6puNuZUR0NXNSNqmtZUcw7cdIxiqrWrIib6Nyq8EVMlOvas68atXxM9HojfNUW2hz2XX0lOqdLZJ40engzHne8PUfDaNoFkq3blPdaGR6rhGpO1iqvgTnMZXyHnPUTvkcrpHOe5elz3K5y/CrlyfhqqnFOC9S9aeVPAY8Utrywx8RPR6g4BjLk57baq21UNtuk76i1TOSKN8qufJQSOXDHseq5dTKq4cxc44Objukfau33b1HaFdb7RzVRcVROdqHYkgpGuTKIjUXE06oqKiL3KZRVRehb1NuxzTenhp6N0ZomNZXbdLnTUrOcqqiGnYucOnlZEjscVRqvVN5fIh0NLtFsMr0jju1C56rjHPtbx/pPw39Z59al1BXXGZ09fVT1Ur+Kvmkc74N1vQ1EToREREQ6spW7UnXhXg1TtM+j1Ahka9rXMcj2uRHNc1Uc1zV6Fa5ODk+A/SGCtim164afqY2ulfUWyR6JU0kjnOa1q4R0tPlfsUyIiLw4Lu4VDdVmuMNZTw1VO9JIKiNksUjVyjmPTKLw+Ev7NtVc0cOE9G7Hk31f7fdpsumKakqIqSOrWpndCrJJXxI1GxufvIrWrni1Ex5SnPrsqvxLS/pc3szvOXU5ew7QnV2TUL8kSIn9qmTznbZtOWmWYrbSODRlyWi3CXo5ss1M+82ehukkLYH1bJHrCxyvazcnlhREc5EVeEaL0dZJiuuTR3p2X8RP67UlinWwTM46zPnMQs451rEyrjb7tIl0zRUtXFSx1a1FV2OrJJHRI1OZkl3kc1q5XuMY8pTH12VX4lpv0uX2ZLOXP/ABNbfOf/AOLOY/Q5O2bTkplmtZ0jgrZb2i2kS9DdiOt5NQ2qO5SU7KZz6iaHmo3ukaiQuaiO3nIi5XJgLU33bWflVR++ebQ5G/evB+XVn7bDF+pvu2s/Kqj988htlptjpM+cwjlmZrEynXJh77LN+OqPU6k3yYF5MPfZZvx1R6nUm+V/z4PjLfZfJPu27Pyy4cqIiqqoiImVVVwiInSqqvQiIVHr7lB2G1vfDE99xqGLuuZSbqxNXOFRZ3LuKqL4CneU/tlnrKiazWyV0VDA5Y6qaN2HVkrV7uNHJxbTtdwx98qLngnHPxr2ntGYndp6eqOTPpwq0zV8rGZHLzVmiVnUslU9rseVGsVCQaW5U9umc1lwoZ6TK8ZYXJPG1PK3g9TIuApTjbs3XVr76/Vp+9cquaKomjp7XTTwMkc2KbsmZqyRovcvVvN9yqpjgdvsy5R1TeLvQ2x9rp4G1k3NLK2ple5ibjn5RqsRFXufD1mSMlhcnDvqsv5Wv7mUlTbMs3iN71joRlvr5vQAHJweiXgAAAAAAAAAACM7We9+/eZbr6hUEmIztZ73795luvqFQQy8k+yN+WTZR3v2LzLavUKckxGdlHe/YvMtq9QpyTGMfLBTlAAbEgAAAAAAAAAACA7atmNJqWj5uTENbAjlo6tEysbl4rG9Pv4XYTKfHwVCfAhekXjSWLRrGkvNnWmlq2z1clFXwuhmj4p0qyRi+5kif0SRr1Kn9p00Urmua9rnNc1Uc1zVVrmuauUc1ycUci8cnottJ0FbtQUi0twizjK09RHhtRTPVMb8L18PWxctdhMouEMS7XtlVx05OrahvP0b3Yp66Jq81InUkjV+1S+Fqr8Cqef2rY7Yp1jjClkxTX2XfyetvrZ1htV8kRsy7sVLcH4ayV3BGxVS9DHr1P6FXGcZNKHl8imueSZtXfXRpY7hK59VAxXUU0i5dNTswiwPd99IxMYVeKt8OOFvYtsmZil/2lsxZZ5ZaJQ839qH8eXnzrcfXJj0gTq/z/n/APo839qH8eXnzrcfXJjPanlX92dp9EdaaA2Gcnx11p47jdpJKekl7qnpo+E07OqSRy/a416kTuvgKd2dWdtwu1uone5qayCJ3DOWukTKY60VMp8Z6QQwMjY2ONqMjjajGNToaxiI1rU8iIifIV9g2auWZm3lCGHHFp1lTVz5NGmpInMhZV00ip3Mzap8itXw7kmWrxM0baNldZpqoY2VyT0k6u7GqmtVqPxxWORq+4lRPiXpQ3+QDlCafjuOnLlE5qK+CB1XC5fvJKf7Irkx/MR6fGXdp2Kk0maxpMdG3JhrprDz+R2Ojh1ovgXqU3zycdWuvGn6SaR29UU2aSoXKZ34URGud5XR7jsfzjAiqan5Cde50V5pVXuI30lQicMb8zZYlXw9EDSh2feYyxHXg04Z0toqflV9913+Gh/4bRlYohZ/Kr77rv8ADQ/8Noyryrn+Zb3lrvzT7rC2dbHb5fGtlpaXmaV3RWVarDA5OH2rgr5U8rWq3hjKFkXLkqXBlM6SG6U09Q1qqlOsEkTXKiZVqTrIuPhVvyGudxG9y1Ea1vBqIiIjUTgiIidCYODsY+zce7+ritVwV04vMWupJIJZIJmOjmhkfFLG7g6OSNytexydTkcip8RZXJZv7qDU9Am9iOu37fMi/fNqERYk+KoZAvxH08ra1NpdT1TmIjUq4KerVETCbz2rE5cJ1qsKuXyuUrrRta6nuNBO1cOhrKeRF8CtlYpytJx5faVbls9LM44quETiqr0IidOTz82+6zfe75V1O8q08LlpaNq5wynhc5EVE6lc/fcvlcbc2tXNaKyXaqb0xUU6pj+e3m8p5e7yecrnKvTxVetek6HaeSf009PNu2i3lD7tP2mevqoKOmZzk9TI2KJicMvcuMqvU1Eyqr1IiqbU2X7AbNaoWPrIWXGuVEWSWdMwseiIuIIuhqIueK5XjxMT2m5VFJMyopJ5qaojzzc9PK+GZm81WruSRqjm5aqpwXoVSQdsrUfj+9elK32pR2fJjpOt67zVjtFfONW/K3SNqmjWGW20L4lTdVi00SIqeBVa1FwZT5UOx2CypHdLY1W0E0vNT06q5expnJvMdHlOEDsKmFXuVVqJwXhV/bJ1H4/vXpSu9qfHeNa3mthdT1l2udXA5Wq6Cpr6qeJyscjmq6OWRWqqORFThwwhvz7VjyV03dJ9PJO+Sto8nSRSOY5Hsc5j2uRzXNVWua5q5a5qpxRUXC5PRbZRqX6r2W23FVRZKimZz+OGKmLMNRhOpOdjeqeRUPOY2xyMZnO0wiKuUjuVYxvkbuU78J/We75TPZl5jJMdYNnn9Wii+WT30S/kVF+7UptELk5ZPfRL+RUX7tSmkUqbT823vLXk5p91k7NNi17vzG1FPC2no3dFVVOWNkiIqb3MMRFfLhF6cI3ylms5JlThFW9wI7HFEopFTPg3uf4/CafsMLI6SmZG1rGNp4WtYxEa1rUjbwRE4InkPuOth7Px7sb3HVZrgrpxYa13ye7/AGyN88ccdxp2ZVzqNXOmaxE4udTuTeX4GK9S3uRvs/7Fo33yoYnP1qLHSbycY6VF7p6L1c45PkahoYMaiYRERE6OHDh8Rsx7BSl96PT0ZrhiJ1ZG5amtXz19PZYnrzFExtRUtReElXM3MaO8KRwuTCeGV/gM75JHtPurq683Sqd0zVtQ74ESRzURPIiIRtF+U4ufJOTJMyqXtrLV2wXk+UnYsFyvsSzTTtbLFQPy2KGN6IrOyG9L5VbxVi8E3k60L6ptJ2uKNImW6ibGiYRvY0S4T4VbnoMBJtJ1F0Jf70iJ0Il0rU/+6O2TqPx/evSld7UuYtrxY66RT9+DbXJWI8mkeUNsMoJKGouVop20tXTMWaWniykNTEzLpMRp7mdE3lRU91wT4Mi9BJ37R9QuRWuv15VqoqKi3OtVFReCoqLLxRUIvkqbRkpe2tY06td7RM6xGjaXI21Q6tsb6KVyuktc/NMV3T2NMiyQtRetGuSRvkTdQvAyXyFZnfVC7R5Xd7Cifjq3kqGtRfkVTWZ3NhvvYo19FzDOtQAFxsAABmLlw6Xy233iNvFN6iqFROO6uXwucvUiO30T8YZaPRPbLplLvZLhRYRXugdLDlM7s0Kc5GqInSuUx8Koed8katVWuRWuaqtVF6UVFwqL8Cnn+0ce7k1j1Us9dLe7aXI61P2bYlo3uzLbZlhRFVM8xJ3cSon4KZVvylqa5vrLZba2vk9zS00s2M43nNau4xF/Cc9WonlVDHnJD1P2BqBlM92IbnE6ncnDd55iLLA5yr1cJG4TrehbPLb1R2Pa6S1Mdh9wn56ZqYX/AFak3XI1c8U3p3Qqi9fMuLmDaNNmmfWvD/DbW/8A02SLhVyVE0s8q70s0kksjvwpJHq96/G5yk65POmPqrqG3wObvRQydlT8FxzdP9k4qnQquRqFfGreQ5pncp7jd3tws0jaGnVfwIkbNUOTyK90TUX+Y85my4+8yxCvjrvWaVX/AD5DFfLC1k+uva26N3+rWpqRK1F7l9XI1HzvxnCq3LY+KZRWSeE2o1MqnlU8ztU3J1ZXVtY7i6qq6mpcq9bp5nyr+tx0u07zFIr1n+yxtE6REOvamVwmVVcIiJ0qq9CInWpqXZRyZYHU0dTfnzc9K1H9gwv5tIWuTKNmlTulmTrRq4TinHGSq+Sxp9lw1NRJI1HxUbZK97V6FdToiQL/AFaiSF39U3hk0bBstbxNrcdOGiGHHFuMs/az5L9pnhctrnno6hEzGkz1qIHqn3sm8u83PRlF4ZzxxgyhqixVNtrJ6GsjWKopn7krM544RzXNXra5qo5F8Coel5lrly6eja+2XRjUa9/OUUzk6X7qLNBw6E3USX8/yG3btjpWu/SNNEs2KIjWFC7NtTS2e60NxhVUWnnYr0zhJIXdxPG7+a6Nz0+PPUehGo52S2usljXejlt1TJG78Jj6V7mL8bVQ81VN97Oa59ToymmeuXOsk7Vz4I4Zok/UxDV2dfhav21QwzwmPswGXfyK++V/myr/AHtMUgXfyK++V/myr/e0xS2b5tfeGvHzQ/hyy++d/wCQ0ePzXlLoXby0mY1Mi/h22kd8j52/3SkjO0/Nt7mTml6gR9DfgT+xD9KfmPoT+in9iH6U9NXyh0I8mNOW/wB8NJ5npvXLgUQXvy3++Gk8z03rlwKIPMbT823vLn5OaXofoXvTtn/y5Rf8LiPPA9D9C96ds/8Alyi/4XEeeBb7Q8qe3+GzN6ez+lNC6RzWMa573uaxjGIrnPc5cNa1qcXOVVRERC4NGcnPUFexss7IrdE7iiVTlWoVFRFRUgYiqnT0OVq8F4H75GkbXanZvNR27Q1bm5RFw5Ejw5M9C8V4+U22qGdj2OuWN608OhixRaNZYU2rbCrrYadaxz4q2jaqJJNAjmvhVeG9JE7KpHnCbyKuM8cFUqp6X6ptsdZQ1dLIxr2VNNNE5rkyjt5io3KeR2F+I81a6n5qWWJeKxyPjVfDuOVv/I1bbs0YZjTyljNjis8H8kUn2yjZNddRq99IxsVLE7dlrJ1VsKP4KsUaJxllRq5wnBOGVTKZh+nrXJW1VNRw/baqeKnYq5VEdK9rEc7H3qZyvkRT0d0fYKe1UNLb6RiRwUsTY2oiIiud0ySOx7qR71c5XdauUbHs0ZrcfKGMWPeljrapyfLhY6B1wZVRV0MWFqUjifC+Bq4RH4c5yPZlUyvDpKZQ9N7vb46unnpZeMdRFJBIi8e4larFX4U3s/EeaN2pVgqJ4VRUWGaWJUXwxvVv/IztuzRimN3ylnNjis8GkeQ/qhyTV9nkcqsdGldTtXOGqxzYqhEVeCIu/EuE61cvhNRVdQ2KN8r1RGRsc96r1NaiuX9SGFuSlVvj1XbWtVUSZKuJ6eFnYk0uPzom/Iar5R11dR6Yu0rcor4G0yKnBU7KkZBvIvUuZC9sWXTBMz/tbcVv0T9mKtqmrJb3dauvkcqtkkVlO3iiMp2KrYmoi9Hc8ceFynwaJ03U3eup7fSN3pqh+6iqi7rGJxfI9U6GNTj/APs6XJ9tkvFXQy8/RVVRSTo1zEmpZpIJUY73Tecicjt1cdGTi729bW3HWeKrrrPFuLZzsMsdpiZzlMyvq0wr6mpbv93181Gvcxt6vLjiTS66LtNVEsM9topI1TCt7Hib+tjUXJgbtk6j8f3r0pXe1HbK1H4/vXpSt9qdKu24q10in9m/va6aaJ3ym9lEen6iCqold9Tq1z2sY5Vc6mnam8sO91sVuVav813gKns1ylo6iCqp3Kyenljmjdx4PY5HJnHS1cYVOtFU+2/avu1fG2GuudwrYWvSRsVXW1FRG2RGuaj2smerUejXuTOM4cvhOlOfltWb61jRotPHWHpbpK8MuFBR10XuKumhnbnp+yMR2FTqXj0HaFYcled0mk7Ur1yqdmRov82OuqY2J8TWtT4izz02G29SJ+zoUnWsSAA2pIltp72775prvV3nnUeiu2nvbvvmmu9XeedSnD7U549lTaeZ32jdYXKzyyTW2qkpJJY0ikfG2NyvjRyPRqpI1UxvNRfiJR28dV+Oaj5ul9iV3hP8/qPyc6L2rGkTMNETKxu3jqvxzUfN03sS++SFrm7Xl94S51slWlM2hWFJGxN5tZXVfOY5tjc5SNnT+Chj9DTnIO+2X7+hbP2q7rLex5LTmrEzPq24pnehoXaRqNtotVbcH4/1aB7mJw7qVUxE1M8Mq5U4HnPc62WpmlqJnK+WaR8sj1VVVz3qrnLx8q/IbF5a1xdDp+GFPc1dfDG74I2PqEz8cSGMUU2dpZJnJFejO0T+rRM9kezyr1FW9i02I42Ij6mpeiqyGPOOhPdPXqQ1FbeTNpyOFGTdmVEuOM61Do1VfCkbMNwfTyQtPspNOxVO6iS180k739bmMXm4kXyJuuLj/wA/58pb2PY6bkWtGsz1bMWKNNZYz25cn+WywPuNumfV0Mab08ciJz9O3Pu95vB8SZROjKeFSil4dB6eVlNHNHJDK1HxysdHIxehzHtVrk8nBVPNvXVp7AudfRfyWqnhRPAjJHIicfJgpbds0Ypia+UtWakVng0hyItXOkjrbNK/PM4q6VFXijHKjJ2NTqajt1c/94d9y4f4gofO8HqVeUdyT698OqrexqripZU078dbOYfNhfJvQtLy5cP8QUPniH1KvN2O822SY6cE6zrjljckWhdFXG91HY1tpnTvREWR/BkMLVXG9NK7uWJ08OlcLhFI6hszkQwsTT1VIjWo912qGueiIjnNZS0Ssa5ycXNRXvwi9G8vhKWy4Yy5N2eDTjrvW0V/auSjXvjRam60tPIvTHHTyVDU+CRXsz8iHw6m5Ld4p2K+iq6SuwmVYqOpZHcOhiOVzVX4VanlNiA7E9m4tPX8rXcVYh2DbJ6qt1B2Pc6WSCC1qypropmY5xd5ex4OnDmSPYq5TKK2N/Hihqnbt3s3zzbUfsk1xxz1r19fkIVt272b55uqP2TNNmjDitEcZ0nizGOKVl54n12ygmqZY4KeKSeeVd2OKJjpJHr04axqKqrj+w+U0fyFYmrX3dytarm0dPuuVEVzd6ZyO3VXimUQ4WHHv3ivlqp1rrOjoNJ8ma/VbEkqn01ua5MpHK5Zp08G9HF3LUx/OX4CKbXNkFz05uS1PN1FJK/cZVQb26j8Z3JWO4xOXjjiqLjp6jfxC9t1lZX6fulO9qOXsV8se8md2SFOca9PKm6p1svZ1IpMx5ws2wREPPE5RT8qSfZVphbzeKC3cUZUTpzzkym7BGiyTqi/euWNjkRfC5pxq1m06R6qkRqlWynYjd9QRJVR83SUKuVrKqoz9mVFVH9jxN4yo1yYVyq1OlEVVRcf12y7Eq7TkMVW6ojraR7kjfNHG6JYZHe5a+NzndyvQjs9PUblt9HFTwxQQRsihhjZDFGxqNZHHGiNYxrU4I1EToI9tYszLhZLpSvbvI+jne3hlUliYssat8C7zETKeFTsz2dWMf8Ay6rc4Iiv3ec2cGwORRql9TbKu2yOVzrdK18SLlcU9RvK1uV6cSMkTCdCbpj9S++RDVPS/VkKKu5JbJXuT+dFUU6N+RJX/Kc/YrbuWv3aMU6WhM+XUn+qWfwdkVH7tv0GUDWvLpj/APZ9qd4KyVv50Ll/umSiXaHzp/ZnPzt+8mjvTsv4if1ypLFK65M/enZfxE/rtSWKd3Z/l19oW8fLDPnLn/ia2+c//wAWcyAhr/lz/wATW3zn/wDizmQEOF2h86f2VM/PLcHI3714Py6s/bYYv1N921n5VUfvnm0ORv3rwfl1Z+2wxfqb7trPyqo/fPJbV8rH7M5OWqc8mHvss346o9TqTXHKH1a6zaframN25UTIlJSrlEXnqjLd5ueCuZGkkmP+7MkcmHvss346o9TqS5uXbcHNpLNScd2epq6hfBvUsUMTf1Vjv1m3Zr7mz3mOv99ISxzpSZZRUtzk57IV1HNLU1TnRWylejJXM4PqJlaj+Yjd96iMVFcvSm83HTwqI3/ycrOyi0xaGNRMzU3ZsjkTCvfWOWoRXeFUY9jM+CNCvsWCMuTS3lHFDFXetxfluxTS6Q8z9SKdURN3nF3lm+FZM5z5SgOULsGS0QvulpWWWhYqdkU71WSSlauESRr+l8KdarxTKr0Jw2GfLeKKOpp56eVqPZPDJE9rk3mubI1W4VF6ek7GbY8dq6RER7LVsVZjg8x1LC5OPfVZfytf3MpCb7RdjVVTT5z2PUTQ58PNSOjz/uk25OPfVZfytf3Mp5/Hzx7wpV84egJwcnB6x0QAAAAAAAAAACM7We9+/eZbr6hUEmIztZ73795luvqFQQy8k+yN+WTZR3v2LzLavUKckxGdlHe/YvMtq9QpyTGMfLBTlAAbEgAAAAAAAAAADiV7WornqjWp0ucqNaieFXKuEP43Csip4pJ55GQwwsdJLLI5GMjYxFVz3OXgjcJ0qYs5Qm2qa+yOoaB0kFoif/OZJXOavCWZOlsOeLYl49buOEbW2jaa4Y1nz6IZLxRto+DUFmprhTy0lZCyenmarXseiKi5TpTPQ5OpUM4bA+ULGyKK26glVqxo2OmuTsuRzE7lsdYvSjk4IkvQqe6wqZdpegrYahjZaeWOZjkRWvie17VRehctXBnFnpmr/wCCt4vDAW3PZ8/Tl0fSIqvppm9kUcrul8DnK3dd/PY5FavwET0xeZrfWU1dTruzUszJmccZVq8Wqqfeublq+Rymg+XLdqaSe1UkbmOqadlTLPuqiuYyZYkjY/HQuY3rj+d5TNSHn9orGPLMV9J4KV40twememrrHXUdJWxLmOqp4ahnlbKxHp8Hujzv2ofx5efOtx9cmNp8luqfNpS0ueuVa2phTyMgrKiKNPzGNT4jFm1D+PLz51uPrkxd2+29jpbrH+G3NOtYc7Lrq2hvVrq3+4p66nkd8CSNyvwcT0da5FRFaqORURUci5RWrxaqL1oqYPL9pp7YNyhaenpYbbfXSN5hrY6evRrpUWNuEZHUomXo5OCI/CphOOMEOz9orjma24a+rGG8V4S1GQvbneGUOnbtM9UTeo5YGIq4331DeZRqeFcPcv8AVPmrdsmmIYlmdeKN7URXbkUnOyr0cEijRXuXyIhl3lEbY3aheykpGSQ2yB++1r13X1UiZRssjUXgxEzutXjxzwU6G07XStOE6zLfkyViNI4qcU1HyEaN6NvVQqfY3rRQtX+fFz73p8O7Kz5TLpu3ksaVda9PU/ONVk9c91bK1UVFTnERsSKi8WuSJrEVPCcvs+kzlieithjWzMPKq77rv8NB/wANoyry0OVV33Xf4aH/AIbRlXlfP8y3vP8AdC/NPvL1Ek6V+Ff7T8n6k6V+Ff7T8nqK+UOhHkxfy2O+OHzVS/v6spS2OxNCvgljX5HoXXy2O+OHzVS/v6spGk+2M/pt/aQ8ztHzbe6hfml6A7Z2um0ndN1Fc6S2I5PCuWxv/sPPs9KaaibVWuOmf7mot8cLlVM4SWmRm9jrxnPxHnTqizy2+tqqKZFbJSzyQuRenuHKiL8aIi/GXO0qctvs2548p+zstD6Dut7WZtrpOy1p0YsyJNTRKxHqqMVUnlblFVq9GeglHaD1b4of+mW//qTrdh20B+nbrHV4c+llbzFZC1VTfhcqLvtToWVju6TKLw3k4b2Teumr7SXKnjq6KeOoglbvNfG5Fx1KjkTi1yKmFRehUU17Js2PNHGZieiOLHWzDfaD1b4nf+l2/wD6kdoPVvid/wCl2/8A6k3sQTaVtWs9hictTUtlqN1ebo4HJJUSOwqoioi4jb/OdhCzfs/FSNbWmPw2TgrHnLIqbA9W+J3/AKXb/wDqTUXJg0rX2exLR3GnWmqVr6mbmlkhk+xvjgax29C9zeKsdwznh8BEdkPKQp7jULSXeKKgllkd2LOxXLTK1zvscEznrmOXdVE3+DXKi+5VUQ0A1coioqKioioqYwqY6Ux0obNjwYonfpMylhpXXWGIuWT30S/kVF+7Upoublkd9Ev5FRfu1KZOTtPzbe8q1+aXpzafuen/ABEP7tp9J81p+56f8RD+7afSemx8se0L8eUB+mdKfCh+QSll5o6thdHcK5j0VHNq6hFRer7K8aYsFVc6qKioYufqpt5IoecijV6tar3I10z2tzutVcZzwUn/ACpNMutupKxd1Uhr8V0C4w1UmVeda3HDuZWyJjyJ4SvNOXeegq6etpnbk9NMyaNcqiK5i53XbqormOTLVTPFHKnWeVvXdvMW9Jc2Y0nRPu0Hq3xO/wDS7f8A9ScdoPVvid/6Xb/+pNh7KdolDqGijqKaRrKhGtSqo1eizU8uO7Td4K+PKKqPRMKng4kzyp1KdnYrRrFp0/ZZjDWY11YJ7QerfE7/ANLt/wD1I7QerfE7/wBLt/8A1JtjV+sLbaIXT3Crip2NTO652ZXrhVRscTe7c5cLwRMlE27lTU7rs+OejdHZ3bscU6bzqti5XenmjRVR0S5TuG90iN++VcJrybJgxzEWtPFG2OlfOX0ck3ZzebJXXGa6US0sc9HHHE5ZqaXee2dr1biCVyt4JnK4Q0Wh8touUFZBHU0s0c8ErUfFLG5Hsc1U6UVOGT6jqbPirjpu14wsY67saQAA3pgAA5Q8/wDlEaY+pWoq+Bjd2GZ6VdPhO55qo7vCL17r99qr4Wqb/M38uHS3O0lBeI25fSvWiqVRMrzE6rJTucvU1kySN+GqQ5/aOLex69P/AJLTnrrXXoyvaq6SlngqYV3ZaeaOeJ3TiSJ7ZGLjr7pqE22+64bqC8OrYt5KeOlpqana7g5GsZzkufKtRLMvwKhXxycKLzETX0lT14aOY0VVRERVVVwiImVVV4IiJ1rk9GNk2mUs9lttuwiPgp2rPhco6pmVZqlUXrTnpJMeTCGL+TZpf6qajoWObmGkd2dP/RplR0aYxhUWdYkVF6U3jfJ1ezMfnefaFnZ6+r9M6U+FDzGu9G6nqKineio+CaWFyL0o6J7mORfLlp6bmEeVLpR1s1FWSI1Up7k5bhA7iqK6dVWqbleGUqOcXdTobIzwk+1KzNYt0Z2mPV9nJDu7KXU8DJFRqVtNU0bVVcIkjkZUMRc9arT7qeVyG41PMO31csEsc8L3RTQyMlilYqtfHJG5HsexydDkciKi+Q2bsq5Q9puFPHHdZo7bXtajZVkRWUkytTjLFKuUjRenceqKiqqJlEya+ztorWJpbhx1Rw5IjhK7jM/Lpu7OYtVAiosjpZqtyIvFrWM5pN5OrKyrj+ipZurduWm7fA6VtxhrpMLzdPROSeR7kRVRqqxd2JFx7pyohi7adrOqv1ymuNVhrpMMhha5XMp6dmeahYq9KJlVVeGXOcuEzg27ftVNzcrOsylmyRppCNKb32YUzodE0sb0w5LJUqqf046h6fqchh3R9lluVfR0EDd6WqqIoWp/TciOcuOhqN3lVepGqeiN5omU1oqaeP7XT2yeGP8AoRUjo258uGoVuzqc1vto14Y4TP2ebBd/Is75X+bKv95TFIF38ivvlf5sq/3tMU9m+bX3hrx80Ps5cECtv9FJjuZLRCmfC9lZXI75Gqz5ShDVHLstCrHZrg1E3WSVVHK7rzI2Kenb/wDSqf1GV0J7ZXTNZnLzS9OrZUNmhhlaqK2WGKRqpxRUexrkx5OJ9ClCcnrbVa32iloLrWQ0VZQRNpt+pckUVRBCm7TvZI7gr0i3WuRVyrmKuMKhIdacoPTlvY5IalbjPjuIqJN9iqvRvVCqkbW56eOcdSncptWPciZmIW4y101Udy3++Gk8z03rlwKIJjte1/UajuHZ9RDFT7kLaaCGJXOSOnjklkja+R3GWTMz8vw3OU4IQ489mvFrzMesqV51nV6H6F707Z/8uUX/AAuI88D0P0L3p2z/AOXKL/hcR54F3tDyp7f4bc3p7Lq5GHfO3zfWf/bNsGJ+Rh3zt831n/2zbBd7M+V+8/8Aht2fllyzpQ8zdT/d1b+V1H7556Zx9KfEeZmqPu6t/K6n9880dq/7f3/8IbT5wsTkpW1KjVFCqplKZk9SqYyi7sSxpn4FlRfiQ3aYr5FvfKvm2r/bpzahu7Mj/pzP3T2flDzn2vxJHqC9sRERGXavamOpEqZUPRg869tXfJfvO9x9blNfanlX90do8od9yXO+2z/06r1CqNR8q2F0mk7kjUVVa6kev9GOrhe9fgRrVUy5yW++2z/jKr1CqNua6sjblbK+gdw7LpZoUXCKqOexUaqZ++zjiQ2Ku9gvHVjFGtJea5LdE7OLzeo5ZbXRLVMge2OVzZ6WLcc9quaitnla7iiKuUQjdxo5KeaWCVu5LDI+KRq9T2OVrk+VFLI5Om0n/R65KtQrloKxrYqtEVV5vC5jqGtTgqtVePXhV4nNxVrN9LcI9fs0VjjpL+faD1b4nf8Apdv/AOpHaD1b4nf+l2//AKk3XaLlBWQx1FLNHPBK1HxyxORzXNcmUXKeFD6l6M9SdK+A60dm4pjXen+iz8PHVgrtB6t8Tv8A0u3/APUnKbBNW+J3/pdv/V/rJqzattltNhie1ZWVldurzVFA9Fer8dzz0jcpBHnGXLlcI7COXgRXYjygaa7uSiuiRUNwcv2J7FVtJUZXgxiyOV0UicO5cq56l8Gidl2eLbu/OqHd0101TPk86fq7Xpygoa+FaeqhdVrJEr45N3nKyolZ3cTnMdlj2rwVekn4+EHYxUilYrHotVjSIiAAGxlEttPe3ffNNd6u886j0V2097d98013q7zzqOH2pzx7Km08zQPIio4Zrpc0miilRLc1USWNkiIvZUSZRHouFway+olF/I6T9Gg/wGVOQv8AxrdPNzfWoTXRa7Px1nFrMerZgiN18C2Si/kdJ+jQ/wCA/vR0MEKrzMEMSuwjuaijj3sZxvbiJnGV6fCp9AL8Y6xxiIbtIULy3qZ8lio3tTuYLkxz/I10E0Sf7z2oY3Q9D9t2mFvFhuFE1Myui56HiqfZoF52Po49LejrPPOVitcrXNVrmqrXNVMK1yLhUVOlFymDh9pU3cmvWFPPXSzdPJRu7KrTFExqpv0jpqaRuU3m4kV7VVOpFR/D4C1jBWwPanLpqrfvsfPb6rdSqgavdNc33M8SKu7ziJwVF6U6zXFo2xaZqYmzNvFHEjuO5UypBK3w5ikw5F+Iv7HtVJxxWZ0mG/FkrppPBPHORqK5yojWoqucq4RrUTKqq9SIh5vbSbolbeLnVt9zUVtRInwOldhfgNF7fOUBSPpJrbY5FnlnasVRXNRzI4olTD2wO4LJI5OG8mWoir09BlVxS7Q2iuSYrXjo05rxbyWhyVqV8mq7Y5qZSHsmV/kZ2LNHn86Rvyl78uH+IKHzxD6lXkO5D+l3LPXXh7VRkcaUVO5cojnPVsk+EXpREbGmU695CY8uL+IKLzxD6lXksVJjZLT1nX+yVY0xyxuhs/kR97dR54qvVKAxgbP5Efe3UeeKr1SgNPZ3zv2lrw88LzAB6FeCFbd+9m+ebqj9kmpCtu/ezfPN1R+yas/y7e0o28peeRpLkJ/d14/I6b9+8zaaS5Cf3dePyOm/fvPPbJ86vupYuaGsDq9YfxdcPyGs9XkO0Or1f/F1w/Iaz1eQ9Hk5Z9l63k80VL75EltSS91VSqZ7GoXNThwRZ5G915FxGqf1lKENK8hFP9avX5NR/vZzzeyRrlr7qGPmhq1D8yxo9qsVMo9FaqeRyK1U+Difo/UXSnwoell0J8peYNcmJZU8Ej/2lLt5EnfHP5pqfWaIpO4fbZfxr/2lLt5EnfHUeaar1miPM7N82vu5+PmhZ/LhhV1koJERV3LmxHL4GupqlOP9bdMeG7uVVaFq9L1+61HPplhqkX8FsMjVlX5rfMIoWO0a/wDV1+0J7RGlm9uS7UNk0pakRUXmmVETsdTkqpn4+HD0+UswyXyUNrNDbIJrRdJm00LpnT0tQ/KRNc9ESWOV3QxFVrVRVwnT4S7NSbcNMUUe+tziqnYVWx0S9kvcqIqo37H3Lc/zlRDpbNtOPuo1nTSNPwsY713Y4oJy5/4mtvnP/wDFnMgIW1t82yyam5qmjpW0tBTS89Ej136mSTcdHvyORdxjd169wmfDvKVKhxtryRkyTavkq5bb1pmG4ORv3rwfl1Z+2wxfqb7trPyqo/fPNocjfvXg/Lqz9thi/U33bWflVR++ebtq+Vj9ksnLVOuTD32Wb8dUep1JcHLwpHrDY50T7HHLcIXL4Hzso3sT5KeT5CnuTD32Wb8dUepVJq3lNaUddtO1ccTVfUUatrqdqIqq50COSRrUTirnQPlaieFyGzZ6TbZrxHX+2iWONccsFIb/AOTlemV2mLTI1U3qemShkblMskolWnRHY6FdGyN/wSIYAVS3eTftb/0cnlp6tHyWyrc10qNy51PMiI1KhjPvkVqI1yJxVGs62oadizRiyaz5TwQw33bcW5DrtT3SOioqqslduR00Esz3L1Ixir9BFo9r2mVhSb6tUO7u7+4syJNjwLCvd73kxkzfyjNuCXti2y1o9ltRzXTzyIrJKxzVRzGtY5MxU6KiO44c5cdCJhevn2ulK8J1n00Wb5KxHCdVH3SrdUTzTuTDp5ZJnInQjpHq9U+VxOuTj31WX8rX9zKV6pYXJx76rL+Vr+5lPP4uePeFOvnD0BODk4PWOiAAAAAAAAAAARnaz3v37zLdfUKgkxGdrPe/fvMt19QqCGXkn2RvyybKO9+xeZbV6hTkmIzso737F5ltXqFOSYxj5YKcoADYkAAAAAAAAAAD5rpQQ1MMtPURtmgnjfFLE5N5r43puua5OvgphTbrsmq9OVT3sa+e1zOzS1aJncRy/c9Rj3EzehFXg9MKnHKJvQ+e50MFTDJT1EUc8ErVZLDKxJI3tXgqPa5MKn+fKVNq2WM0ff0a8mOLPMY++23uspkVtNV1VO1VyrYKiWFFXwqkbkRVNSbRuS9SzufPZansRy5d2JUb0kGeK7sUqd0xFXCIjsonhKau2wTVNO7dS2uqP51NLHIz5XKhw8my5aTppP7KdscwrWqqJJXukle+SR65dJI5z3uXwuc5cqvwn5gic9zWMa573uRrGNRXOe5y4a1rU4ucqqiIieEs+ybAtUVL9x1uWmT8Oqljjb8rVXJoXYrsCpLJKyurpG11ezjFhqpTUzl++Y1y5kkxwyvBOoli2TJkny092a45lP8AY5pt1osdtt78JLDTosyIuUSeZyzToi9ac7I7iYM2ofx5efOtx9cmPR9F6P8AP+es84NqH8eXnzrcfXJi52jXdpWOjbnjSIhHASvY/bIK2/WmkqY0mp6iugimicrkR8b3ojmqrVRURU8Cmk9V8lq2TOc+31tRR5yqQyok8SKvHCPVUejU8HH4Shi2a+SszXjo01pNvJkHJyhpBvJPrt7+N6Tcz7xPvY/sJxonkx2eke2W4TzXF7cKkKpzFPlPwkYu9I3rwqp0dZtrsOWZ00090ow2n0Uxyb9k818rGVtTE5lppZEdJI5FRtVKxUVKeL8NEXG8qcETCdK4NvxsRqI1qI1qIiNROCIiJhEROpEQ/lQ0kUEUcMMccMMTEZFFExsccbG8GsYxiI1jU8CIf2Ozs2zRhrp5z6ytY8e7H3YN5VXfdd/hof8AhtGVea52wcnqtvl6rbpFcKSCOqWn3YpI53PbzNJBTrvKxMcXRKvDqVCJ/Wn3LxtQfM1H0HHzbLlnJOlfWVW2O2s8Gt5OlfhX+0/J+nrlVXwqqn5PQV8l2PJi/lr98kPmql/f1hSVH9sj/pt/aQ2Rt52HVmo7oyvgrqWmY2jhptyZkzn5jkner0ViYRF51E+JSB03JTuLHsf9VaFd1zXY5qo47qouOjyHAz7NktkmYj1U70tNvJqOwpikpE8FNTp/9FhQPKy2SS13/ty2xrJUxx7twpo25fPFGncVMSJ7uZre5c1Mq5qNVOLcO0PSRbkcbM53GNZnq7lqNynk4H9VOzlwxlx7tv8A6WrU3q6PL9/kO101qe4W5+/Q1lRSuVcrzMjmtcvhcz3LlwnSqGzdqWwGz3l76mHNurXqrpJadqczM9eKulg9yj1VeLm4VeOUVSkbzyX7/G/FNLQ1TPw+eWD4O5kRVOJk2PNjnhGv3hUnFaPJXd22o6hq27k93rXN8DZebX5YkapEJXucqucquc5VVznKrnOVVyqqq8VVVLsouTHqN7kSVaGFv4XZKSY/qtaTzSnJUhY5rrpc3SoipmKjj5tHJ1ossnFvVxRFIxsue8+U/ux3dpZjsNpqa+ojpKOCSpqJnI2OKJque5eteHuWomVVy4REyqqiJk3psH0pcrPaIqW51rqqoVd5IlXfZRRqnCmjlXupMdeeCLwTgiZ73ROibXZYlittHFTI5ESSVE3p5ce+zPy96de7nHgQkR1dk2Puf1TPFZxYt3jLEfLI76JfyKi/dqUyas5RGxi93y+SV9AymWndTU0SLLUtifvRMVH9wqKuMqV39bRqj3qh/TWf4Tl58GSclpis+cq16W1ng2jafuen/EQ/u2n0n8LfGrIYWO4KyKNjuvi1iIvHr4of3PQ0jSsR9l6PKAAE2Va8oTZm3UltRkW6y4UivloZXcGu3kTnaaRelI5Ea3j1Oa1eOFQwnd7dPSTy01TE+CogescsUjVa9jk6UVP156FRUVM5PTYgu1DZXaNQtzWQ7lUxu7HWwYZUNTjutevRLGmV7l3xKhztr2LvJ3q+fr92jLi3uMMA2q41FLIk1NNLTyt4JJC90b8LjKbzVRVRcJw6CXTbXNSvj5p14rFjxjG8xF/ORuf1lm6n5LN0icq2+spauNV7ls29TyI3+eq5bn4DpIuTNqZVRHNoWp1r2W12PiRvE5Xw+evCIn9lfctHop+4V89Q9ZKiaWeReCyTSPlfjwbz1VcHztRV4JxVehOtV8CGldOclOpcqLcLpFGxfdR0sTpJEX+lIqNX4S79nOyOx2JWy0lIklU1PuyoXnqhvhWJVTdg+FiIvlU249gy38+HuzGG0q+5Jugb1a4ZKu4TS0tNUsRYbU/3WXJnsidjuNO/HQzg7j3SJ0F/KcY/z4AdzDijHWKx6Lla7saAANqQAABH9o2nWXe1V9ueiYqqd7GKqZ3JW93BIidaslaxyeVqEgBG1d6NCY1eYdZTPhkkhlarJYnvikYvSySNyte1fKjkVPiP4oa12pcm+a6XaruFFX0tLDVPSV0MsUrnNmVqJKqLGmMOcm94cucRf60+5eNqH5mp+g83bYssTMRGuihOK2umiWciPTPM0FZdXt7qslSnhX/uafO+qeBVlc9F8KIhok6LQGnWWm20dujVHJSwMjc5qYSR6Jl7/Kquz0+Q7072z4+7xxVdpG7WAr/brs4i1HbVgTdZW06ulopl4I2TGFjfjjzT0REXPgRepCwAbMmOL13Z8pZtWLRpLzO1HaKqgqJaSshfT1ELlbJHI3DkXqVOpzV6UcnBUOuyejO0HZ9ab9GkdxpWSPaitiqWfY6mFF6ebmamcZ+9dlvkKL1ByUWq5VoLtutVVXcq4VXdTPBu/EuXYTrVEOHl7PyVn9PGFO2CY8mWj9Jg0hS8k+t3289d6RI891zcMyvx17qO4Z+EtrZnsHslleyoVjrhWRqjmT1SNVkTk6HRQJljXp+EuVTqwRx7BltPGNGIw2lD+Sbsmktzfq3codyrnj3aGCRqpJTQSJh872rxZPI3CImMtaq5wrlRLz1Z/F9w/Iav1eQ7PJ8l6pVnpqmBqo109PNC1y53WrLE6NFdjjjLk6PAdrHhjFj3a9FvdiK6PMgu/kV98j/NlX+8pjvvrT7l42oPman6Cf7CNhlZp26uuE9fS1LFpJqbchZM1+ZXRORyq9MKic2qY8qHFwbNlrkidPVVpjtrHBYW2vR31dstZQN3UnVqTUrl6G1MPdxIq4XCOwrFVE9y9x571lPJDJJFKx0csT3xyRvTDmSRuVr2OTqcjkVPiPTwqva5sPtV/kdVZdQ17kTfqYGoqT7qIjVniXg9+ERN5MLhE6cIdDbdknL+qvnH9W7Nj14wwjkZNIP5J9fvLu3ej3M8Mwz72PLjhkl2lOS1bIVa+4VtRWKmMxRIlPFlF638XuRfiObXYc0z5aK8YbT6Mgg19tW5OEdwqKZ1nfQWulgpWwuhWKVz5JUlkesz5G5dI5WvYmXqq9x4CHfWn3HxtQfM1P0GLbHlidNNScVo9GgtC96ds/8Alyi/4XEeeB6S2CxPpbPS21XsdJT2uCgdK3eRjnw0jaZZERe6RqubnHTgzP8AWoXLxtQfM1P0FzbcF7xTdjXg25aTOnBHORh3zt831n/2zbBQuwzYTWaduyXGavpaiNKaeBY4WTNfmXdw7L0wqJu/rL6LXZ9LUxzFo04tmCsxExL9R9KfEeZmqPu6t/K6n9889MmrjBlK7clm4z1E8yXWhak00sqNWKoXCSPc9EVccVTJr7RxXybu7GumqOeszpoi/Is75XebKv8AeU5tQojYTsLrNO3VbhPX0tSxaWan5uJkzXosronI7L0wqJza/KXubdgpamPS0aTqnhrMV4h517au+S/ed7j63KeiimZddcmq4XG6XG4MudFGytraqrZG+KdXMbPM+VrHqiYVyI5M44Zyau0cVrxXdjVHPWZ00VHyW++2z/jKr1CqN7GdNknJ5rrLeaG6S3GkmjpXTOdFFHO170kp5oU3Vcm6mFlRePUimi0Jdn47UpMWjTizgrMROrLPK22TyJJJqC3xq6NUzcoWNy6NUT7sRE6Y8Y3vwcZXhkzKeoBSW0vk42i5PfUUDvqXUvVXOZC1Fo3uXK55hPtOVXPccOHBDTtewTNt/H6+cIZcMzxhkfTWrrnbFzQV1TSp+DFI5GZXGV5tcszw6cZOxvW0u/1jd2pu1bI3wJKseU8CrEjcoWJdOTDqGN6tgfQ1DOp/P8zn+q9uUFv5MOonuxM+hgauO6So53491iZKEYM/lpZp3L/dRz3Kqqqqqqqqqqq8VVelVVelTttI6erbpVR0dBBJUVD1y1rPvWoqZke/ojjThlyqiJlPChpvSPJVpI3NfdLhJU44rDSM5ljvB9lky9PkL20hpW3WiDsa3UkNLEvF/Nt7uRyffSyuy+V39JfgwWMPZ17T+vhH9U6YJnz4Ou2TWCutlppaS41rq6qjb3cjuKRoqJu07Hr3UjGImN93FeK8OCJKwgO5SsViIj0W4jQABJlEttPe3ffNNd6u886j0l2hWiS4Wm5UMKtbLWUVTTRueuGo+aJzGq5U6su+Qyt9a3e/5VQ/nO+g4/aGG97xuxrwVc9Zm3B9nIX/AI1unm5vrUJroozk4bIbhputrKmslp5WVFIkDEhc5XI9Jo5Mqip0brVLzLewUtTFpaNG3DWYrxAAXW0MicqjZBLSTzXu3Qq+hncslbHGmVpJVXupt1P/AHdy8VcnBq9PSa7OFRFyioioqKioqZRUVMKip0KnkK+07PGauk+fohkpvQ8wHKfnJt7X3J1sVye6amSS1zuXLuxUatO5V4qvY7sNYq/zVRPIVnVck+t3l5q70m5nhzkM6Ox5d3gcTJsOWs+WqpOK0M25JFs70hWXyvioKJiukkXekkVF5unhRUSSeZ3QyNuU6elVaicVRDQ2meSlG16OuN1WRiKirHRxKzfTrTnJfcfDhS/ND6Pttlp+xrdSsp41wsjky6Wd6JhHzyu7qRcKvBeCZ4Y6DZg7Pvaf18ISphmZ4udBaXprNb6a30rcRwMRFdjCyyLxkld/Oc7K/IVDy4v4govPEPqVeX2VZymdDV+oLVS0dubE6aK4x1L+elSJvNNpqqJVRypxXelZw8qnU2mn/RmtY/ZYyV/RpDCBs/kR97dR54qvVKApf62jVHvdD+mM/wAJozk1aJr7BZ5qG4tibO+4z1LUhlSVqxSU9JG1VcmER29FImPInkObsOK9MsTasxwn0V8NJi3FZ4AO6uBCtu/ezfPN1R+yTU6HaHYn3O1XC3xvZFJWUslOySRHKxiyJjecjeKonkNeWJmkxHSWLeUvNs0lyE/u68fkdN+/efyTkn3LxtQfNVH0FpcnrY/VaYqK6aorKeqbVwRRNSFkrFasciv3nc4mFRUU4ezbNkjLEzXylUx0tFo4LjOr1f8AxdcPyGs9XkO0PjvlItRS1MDVRrp6eeFrlzhFlifGirjjhFci8DvXjWswtz5PMk0ryEPuq9fk1H+9nPn+tQuXjag+ZqfJx6P84LU5PGyGq0xNXyVFZT1KVcUDGpAyVisWJ8jlV3OJxRUf1eA4Oy7PkrliZjgp48dt5cJ+oulPhQ/Jy1cKi/2HeldnyeYdw+2y/jX/ALSl2ciTvjqPNNT6zRHe1HJTuT3vf9VaBN5znY5qo4byquOjyk+2C7DqzTd0kr566lqWPopqXm4WTNejpJYJEdl6YVESJU+NDgYNmyRlrMxw1UaY7a+S6rtQR1VPNTTNR0U8T4ZEXiite1Wrw6+n9R51bRtKT2W5VVvnaqLDIvNOVF+ywOVVhlaqomUc3HFOGUU9HyGbUtmts1FA2OujVs0SOSnq4sNqIc8VajlTu4t7juO4fBnJ0tt2Xvo1r5ws5se888Ahpa48k+q5xexrxTLF1c/BKknxpHlp22m+SnA1yOuN0fKiKmY6SJGI5OtOclyrfiRTlRsOaZ0mFXur9GVDhDaO0Hk8W+ot0NHZo6WgmZUJLNV1DZJ55Y0jc3m1lTLkTeVq4TCcOgrv60+5eNqHr/2VT8nQYvsWWs+WpbDaFp8jfvXg/Lqz9thi/U33bWflVR++eb72HaKm09aY7dPPFUPZUTzc5Cj2sVJXNcjUR6ZRUwv6iirpyWbjNPPMl1oWpLNJKjViqFVOce52FXHFUz+stbRgyTipER5Q2XpbdjgrLkw99lm/HVHqVSb5eiKiovFF4KnVhenP+eszlsn5O9dZbzQ3OW40k0dI+R7oo452yOR8EsSbquTGUWRF4+A0aWuz8dqUmLRpxbcFZiJiWK+Uxskls9VJcqKJz7XVSK5241XJRzPXKxyY9xE5VXdVeHHHgQpJT09qYGSMdHIxskcjVY+ORrXsex3BzXtdwc1UXii5QpHXXJosta981DJNbJHLlYo8S0ucfeRP7qJqrxwiqngRCvtPZ06zOP19P8NeTDPnDF+QaPk5KFfvLu3ej3c8N6GoRceXHAmGh+S7bqd7JbpVyV6sVFWnibzEDlRc4e/POOb5OHwlSuxZp9NGqMVujH5YfJx76rL+Vr+5lLUuvJVrZJ55IblQQwvmlfFFzVSvNxOe50ceccd1qonxHebL+TnXWi70FykuVHNHRzc6+KOOdr3puPZhquTCL3XX4Bj2XLF4/T6wzGO2vk0icAHpF4AAAAAAAAAAAjO1nvfv3mW6+oVBJiM7We9+/eZbr6hUEMvJPsjflk2Ud79i8y2r1CnJMRnZR3v2LzLavUKckxjHywU5QAGxIAAAAAAAAAAAAAAAY0AAGRyh5v7UP48vPnW4+uTHpAefG0jSl0kvN3fHbbg9j7ncHseyjqXNcx1XMrXNckeHNVFRcp4Tk9qROldPurbR6P5bBe+execqb9tD0LUwXsR0vc4dR2WWa3V8UTLjTOfJJR1DGMaj0y5z3MRGp5VN6KS7MiYrPuzs3lIADp6LAADIAAM6gADAAAAADIAAwAAxoyAAywAAxoAAMgAAAAAAAAAAAAAAAAAAAAAAAAAAAAAAAAADGjOoAAwIADIAAEAwAYAAGQAAAAGNACAAAAAABkAAAABjQAAIhkABlgAAAAAEABgAAZAAAAAAABhnUABlgABgAANAABkAAAAAZ1AAGAAAAAAQAAAAY0ZAAZYAAAAAAAGAABkAAAAAZAAGAAAAAAAAAAACM7We9+/eZbr6hUEmIztZ73795luvqFQQy8k+yN+WTZR3v2LzLavUKckxGdlHe/YvMtq9QpyTGMfLBTlAAbEgAAAAAAAAAAAAAAAAAADnK+H6DgGJjUcqq/5U4AEREeQAAyyAAMAAAAAAAAAAAAAAAAAAAAAAAAAAAAAAAAAAAAAAAAAAAAAAAAAAAAAAAAAAAAAAAAAAAAAAAAAAAAAAAAAAAAAAAAAAAAAAAAAAAAAAAAAAAAAAAAAAAAAAAAAAAAAAAAAAAAAAAAAAAAAAAAAAAAAAAAAAAAAAAAAAAAAAAAAAAAAAAABGdrPe/fvMt19QqCTEZ2s979+8y3X1CoIZeSfZG/LJso737F5ltXqFOSYjOyjvfsXmW1eoU5JjGPlgpygANiQAAAAAAAAAAAAAAAAAAAAAAAAAAAAAAAAAAAAAAAAAAAAVMJnqMasgPhqrzRxfbKumjx0788TcfDlx1Fdr6yQJmW60LU/Hsd+zkhOWsecwjvQkoIHLtj0u3/tqiXyNc9f7p8M23XS7f+02O/osev8AyITtGP6o/LG/XqsoFYpt60sv/aKfHE9D6qfbbpd//a1O3+mj2/8AIfE4/qj8sd5XqsQEKpdrGm5V3Y71Qud4OcVF/wB5p3dLqy1y45u40T89GKmL+xXEozUnymPyzvx1d0D+NPVRSfapY5Pxb2P/AGVU/tgnrqlrAADOoAAyAAAAAAAAAAAAAAAAAAAAAAAAAAAAAAAAAAAAAAAAAAAAAAAAAAAAAAAAAAAAAAAAAAAAAAAAAAAAAAAAAAAAAAAAAAAAAAAAAAAAAAAAAAAAAAAAAAAAAAAAAAAAAAAAAAAAAAAAAAAAAARnaz3v37zLdfUKgkxGdrPe/fvMt19QqCGXkn2RvyybKO9+xeZbV6hTkmIzso737F5ltXqFOSYxj5YKcoADYkAAAAAAAAAAAAAAAAAAAAAAAAAAAAAAAAABDABTpdT6rttsZv19ZT0qYyiSSIj1TwoxO6VPiKX1VymqNJex7NQVFxmcu5G5yOja9/QiRxtRZH8fAnE05dpx4+adEbXrXzloI6rUOpbfbmc5X1tLSMVcI6eZke8vThqOXLneRCgqOybT9Uuyka2Sifxy/FE3dcuejuqhz0b5GovkJlpjkaU75Envl5qq6VcLI2HLN/8AmvllV0nxopzsnasRyxq0W2jpD+WouUnpqlykMlVXPRcYpYN1i+XnKhzGq3ypkhbuUNf7lIkVj005yvykav7JrXu48HJzUcbGr0cOPwqah0hsH0pa2tSns9M97eHO1KLUSrj8J0nSvxFh0NDDTt3IIo4WfgRRsjb+axEQqX2/Lb10apzWliiO27W7omG0v1NY/wALaWiVvl3pFWVvyn96bkx66uLkfdtRwQovFf8AXK2rlTw9wyNka/nm2MArWy3t5zP5a5tMskW7kVQqv+valrKjKoqpBRMg6k4b01TLnjnjhPgJDbuRjpiP7dV3ef4Z6aP93ToaXBr1YUJS8knRjPdUtbJ/Tr50/dK0+1nJV0QnTapXfDcrl/yqC7gBSa8lbQ/iiT0lc/8AqT+M3JR0S7ottQz+jca5f25lLyAGeqzkf6PencNuUK/zK3e/VLG4j9dyKbEuVp7tdoHfe73YsqJ8SRMVflNSgDG9y5GtxhRXW7VTldld2OekqKdE8GZqeqkyuf5iHVdprala1TsS6xVkbPcsiuDpGKnVmGtiZlfiNuDBKL2jymWdZYaq9YbTbOiuuNi7KhZxfL2Ermr5Vlon7v6j+1j5UkDXc3d7NV0buCb9M9JcrnDlWCobE6NqdPBz1Nv4Oj1Bo+1XBFStt9HU73SssEbnLnwvxvfrLFNsy19dfdOMto9VC6Y216auCo2O5wwyOXCR1iLSuVVwiIizYaqqqpjCqWBBMx6I5jmuReKK1Ucip4ct6iOa45KWlLjvOp6ea2SqmEdRyKkadPHmJMsVc9ZVV15LuqLNmXTd/WRrMubTSSPpl8K4TuoXvXwK1PhLePtS0c0fhsrtE+q+0UGZV2ra005iPUljkliZhq1Sxbnk3nVEG9A5yqqdbSxNDbfdPXJGtfOtBO7GYqtN1ufA2VO5d0KX8W24r+U6e7fXLW3ktYH86adkrGyRPZIxyZa9jkex3wOaqop/RC3E6tgADIAAAAAAAAAAAAAAAAAAAAAAAAAAAAAAAAAAAAAAAAAAAAAAAAAAAAAAAAAAAAAAAAAAAAAAAAAAAAAAAAAAAAAAAAAAAAAAAAAAAAAAAAAAAAAAAAAAAAAAAAAAAAAAAAAAAAABGdrPe/fvMt19QqCTEZ2s979+8y3X1CoIZeSfZG/LJso737F5ltXqFOSYjOyjvfsXmW1eoU5JjGPlgpygANiQAAAAAAAAAAAAAAAAAAAAAAAAAAAARPo//RjU8gKvwfQQHaZtbs9hRzKmdJqtG5Sjp1R82VRd3nOqJP6XhKdo7rrjXqujtFO62Whz3MfVbzoYXNRVa5rqrG/M5MKitiRcLlFVCpn22mL11no1XyxVbu0bbJYrHlk9SlTVInCkpMSzIvgkXO7D0/fqhU0O0DXGr5lg03bX0FGvDslEw5rFRV35a+ZEjZlE4JG1FyuMuLo2UclKxWpzKm5Odea1MPV06btKknBVc2DK7y73Hu1VTQNFRxQsSOGNkUbUw2ONjWMROjg1qYQ5Gbb8l/tH2VrZpn7Mm6E5HnPS9l6pu89bK5d91LSPcmXLxdz1ZOjnvRV6UY1v9I0VoHZpYrCzdtVspaRVajXzNYj6iRqLlElqZMyyJnjhXY4kuRDkpTOrU4wDkAAAAAAAAAAAAAAAAAAAAAAHAwcgD+c0LHorXta9qoqK16I5FRelFReopnaNyY9J3jfelE62VLsr2RbHNp+6Vd7efTua6B+V6e5RVyvFF4l1HAGIrpsE1zpVZJ9O3T6p0ze7WCP7FI9reKI6hnc6N7v6DlXj1HGkeUhJTSJR6ntk1DUNcrX1EEUjW8Fdl0lJJ3bMYblWOflVXg028qEW1/s+s99gfT3OggqWuTCSK1GzsXCojo5m92xyZXC5N+LacmOf0ylXJNfJAdN6hoblC2ooKqGqicmUdE9rseFHNzlrk60XCodohROu+S3drNKtx0dcpt9qq5aKWVI5VRM4ayRe4mT+bInX0nUaS5QVXb6pbZqy3y0VTGqNdO2JzHNXoR0sDuli9O+xVTr6DrYO0q24X4T/AEWqZ4nzaNB1+n71S18DaminjqYH+5kicjkz1tVOlrk8C8TsEOjW0Txji38PQABIAAAAAAAAAAAAAAAAAAAAAAAAAAAAAAAAAAAAAAAAAAAAAAAAAAAAAAAAAAAAAAAAAAAAAAAAAAAAAAAAAAAAAAAAAAAAAAAAAAAAAAAAAAAAAAAAAAAAAAAAAAAAAAAACM7We9+/eZbr6hUEmIztZ73795luvqFQQy8k+yN+WTZR3v2LzLavUKckxGdlHe/YvMtq9QpyTGMfLBTlAAbEgAAAAAAAAAAAAAAAAAAAAAAAAAp3bLt1oLLv0dHu19z9ykbHZhgeq4TnntzvP/mJx6DVlzVxxraUbWivGVlat1PQ2qndVXCpjp4WovF6909elGxsTunuXwIhnq87UNS6vqHWvSNFPBTq5WS1iIjZnN6MyVC9xRxYXPBd/j0p0HdbM9gN91ZURXnWFRPT0jk34KDKx1MjHd01vNf+5RKi9C/ZFTGccDXmj9LUFppWUdupYqWnjTCMiaiZXrc9ycXuXwqcPadvtfhX9MKuTNNvJQOxzkmW2gc2u1BJ9Wa9V31gdv8AYMcnWr2uw+rfx+/7n+b1mkqOmjiY2OJjY42IjWMY1GsY1OCI1reDUTwIf2wCg0GDkAAAAAAAAAAAAAAAAAAAAAAAAAAAAAAAAAAcHIA4VCJ7RtnVm1DT9j3ahiqmoi83KqLHUQKv30FRHiSNUXqzhetFTgS04AxDrbk/6m0hK+56Tr562kYu8+lVG9kpGnFUmp8c1Vtxwy1EXrwh32ynlAUdxelDd40tVyRdxd/ebTTSJlFa1ZO6gk4e4f1qiIq9BsDBT23Lk/2XU7JJVjShue4vN19O1rVVycWpURpwnj8PXxXCoq5LGDab4p4TwTpkmvk+1qoqIqLlFRFRUVMLnweFDky5FftUbPKuOhvsL6+zvcrIKljlkZuccdjzuTuJETCrE/iiZxlOJoXQ2sLfeqVtXbqhk0fBJGouJYX4zuTRrxjd8PBepVO7s+11yxw4T0XMeWLcHfAAttgAAAAAAAAAAAAAAAAAAAAAAAAAAAAAAAAAAAAAAAAAAAAAAAAAAAAAAAAAAAAAAAAAAAAAAAAAAAAAAAAAAAAAAAAAAAAAAAAAAAAAAAAAAAAAAAAAAAAAAAAAAAAAEZ2s979+8y3X1CoJMRnaz3v37zLdfUKghl5J9kb8smyjvfsXmW1eoU5JiM7KO9+xeZbV6hTkmMY+WCnKAA2JAAAAAAAAAAAAAAAAAAAAAAfPca2KnifPPIyKGNqufJI5Gsa1OlVVeo6/WWp6K0UklbXztggjReK+7kdxxHE3pfIuMIiGcKOPUO024OpqRH27T9O9FmncjliaiKuEeqYSoqVTjzaLhvSuOGae07XXFHWfSGvJkivu+3XO1K76qrXWDSEMyxPyyetaislezOHObKnClpsJ7v3S54Y67z5P3JvtundyurkZc7yqbyzyt34KV68Xdisf/tc/7Ve66cYyubH2SbNbXpmhbRW2BGcEWoqH4dUVUmE3pJpOtVX71OCcEREREQmZwMua+WdbKVrTadZGoDkGpEAAAAAAAAAAAAAAAAAAAAAAAAAAAAAAAAAAAAAAAAAAA4OQB1mpLFR3Gmko6+mhq6aZqtkhnjbIxyY4LhyLuuTqcnFF4oqKY32qbBbzpCqW+6PnqJ6NmXzUWXSTwsTKuZJH0VtNu54Km8nlXCm2zhegzEzE6wQyzsV2y0OoGJTy7tJc2JiWleuGyqnBz6dVXLm5+9XihaZXnKL5Nsdxc686cxQXiLMroY1SKKse3ukVioqJBUdW9wRc4XwpBNiO2yR8/wBQ9SMdR3OBywNnnasKySNXHM1LHInNT9SL0L8Z2dk2/e/Tf9pW8WbXhK/gEXPlT9XxL4AdWJWAAGQAAAAAAAAAAAAAAAAAAAAAAAAAAAAAAAAAAAAAAAAAAAAAAAAAAAAAAAAAAAAAAAAAAAAAAAAAAAAAAAAAAAAAAAAAAAAAAAAAAAAAAAAAAAAAAAAAAAAAAAAIztZ73795luvqFQSYjO1nvfv3mW6+oVBDLyT7I35ZNlHe/YvMtq9QpyTEZ2Ud79i8y2r1CnJMYx8sFOUABsSAAAAAAAAAAAAAAAAAAAX5CNbRNa0Nion1lbJuomUjiRU52aTHBkbV/wD0h+dpet6KwUD62tfjpZBCipztTNjLY429fhVepMqUlsj2dXPaJclvl9WSCyQSYgp03mtqN1ftFP8A90n30idKrhChtm1xijSONv7NWTLu8Hx7PdAXnaXdPqtdnTUWn6Z6shamUa5mUc6momrjec7uecnx4ERV3URu3tJ6fo7XSQ0NBTx01LAxGxxRtwieFyr0ueq8VcvFcn1Wi3QUkMdNTRMgghYkcUUTUZGxjeCNa1OCIfYcC1ptOsqUzqAAiwAAAAAAAAAAAAAAAAAAAAAAAAAAAAAAAAAAAAAAAAAAAAAAAAAADhSl+UjsFoNVwLURoylvMUe7BWo3CTo1O4gq0T7YzqR3FzerhwLpOHAYb2S7ULhYa1dM6rbJDLA5sNNVzZXdbnDGySL9thVMbsvHwLxQ0gxyKiORUcjkRUVFRUVFTKKipwVMdZ+uUJsaoNWUKxyI2nuMLVWirkZl0bscI5ccZIFXGW9XShmbY/tFr9N179K6oa+FYH81TVEq5SPe4RIki/baR6YVr+hM/EdbYtt0/Rf8rOHL6S0wDhioqIqLlF4oqLlFRehUXwHJ2YnotAAMgAAAAAAAAAAAAAAAAAAAAAAAAAAAAAAAAAAAAAAAAAAAAAAAAAAAAAAAAAAAAAAAAAAAAAAAAAAAAAAAAAAAAAAAAAAAAAAAAAAAAAAAAAAAAAAAAAAAAAEZ2s979+8y3X1CoJMRnaz3v37zLdfUKghl5J9kb8smyjvfsXmW1eoU5JiM7KO9+xeZbV6hTkmMY+WCnKAA2JAAAAAAAAAAAAAAAAB0mt9T0lnopq6skRkULVVEym/I/wC9jjT756rwwdheLlBR081XUythp6eN0ssrlw1jGJly8OKr5E4quEMy2miuO0/UCRR87Tact70dK9UVu7F1IidD6uXHBM9y1VXhwRae17VGGPv6NWTJux931bLNEXHaTenXm6tkp9P0Um5FEjlxKjXb3YlPlMOzupzkqeROOMJuS02+Glhip6eJsMEDGxxRMajWMY1MNa1E6EwfPpmx0tupIKKjhZBTU0bYoomJhGtaiJ8blxlV6zsjzlrTadZ81GZ1cgAwAAAAAAAAAAAAAAAAAAAAAAAAAAAAAAAAAAAAAAAAAAAAAAAAAAAAAAAAOHFVcozY1RatoNxyNhudM1y0NaiJvMX3SwSrjL6dy5yi9CrlOJaxwqAYe2GbRqy0Vy6T1I18NTBIsNJUyuXpT7XC96+6Y7HcSdeURePTo46DlWbEo9TUK1VCxkd8o2K6lkzudlsZ3S0sjsoiOXHcOXodjOEXKVTyadqz61q2K7udFdqPejjWdqsknbCu66KTPRUsxhUXCrg7GwbZ/wDjt+0rWHL6SvUDIOwsgAAAAAAAAAAAAAAAAAAAAAAAAAAAAAAAAAAAAAAAAAAAAAAAAAAAAAAAAAAAAAAAAAAAAAAAAAAAAAAAAAAAAAAAAAAAAAAAAAAAAAAAAAAAAAAAAAAAAARnaz3v37zLdfUKgkxGdrPe/fvMt19QqCGXkn2RvyybKO9+xeZbV6hTkmIzso737F5ltXqFOSYxj5YKcoADYkAAAAAAAAAAAAAAz/lRkpLlQ7S3W2nZaLc5zrpcURmI+MkEMjkYmG9KSyKu63416jVmy1x13pYtbdjVD9sWoa3WN7p9JWJyrTpMnZkzUcsT3R45yaZzf/doUz14c5W9e7jYuyfQlFp2109soWIjIm5llVESSomX7ZNIqdLlX5EK95Jmx5mmLZz9UjX3e4o2WskVMrAxURzKRjlTKtbnLl63KvVhC7jzGXLOS02lz7W3p1cHIBrRAAAAAAAAAAAAAAAAAAAAAAAAAAAAAAAAAAAAAAAAAAAAAAAAAAAAAAAAAAAAAHCmV+WRsclc7/S2xI6G50e7LWMp07udsfFKprWp3UzETuuC7zeC5wapPxLGjkVrkRWqio5FTKKi8FRU60wInQZr2EbSodRW5sqq1ldTojK2BOCtfjhMxOuJ6JnPUqqnUWGhmnbxpGr0BqSHUVpaq2i4TKk1O1MRsVyo6oononBGvRFex3U5PIaE0vfKa5UdPW0kiSQVEbZGO4ZTKcWPRM7r2rlFTwop6HYdp7yuk+cLuHJvRpPm7IAF9uAAAAAAAAAAAAAAAAD9Rsc5cNa5y9OGoq8OjPDq4n5U77Q/3S/8Q795GaM+Tu6Tbz0RvbdjV0/YsvvUnzb/AKB2LL71J82/6CzkQYOX4rb6Y/Kv8TPRWPYsvvUnzb/oHYsvvUnzb/oLOwMGfFbfTH5PiZ6Kx7Fl96k+bf8AQOxZfepPm3/QWdgYHitvpj8nxM9FY9iy+9SfNv8AoHYsvvUnzb/oLOwMDxW30x+T4meisexZfepPm3/QOxZfepPm3/QWdgYHitvpj8nxM9FY9iy+9SfNv+gdiy+9SfNv+gs7AwPFbfTH5PiZ6Kx7Fl96k+bf9A7Fl96k+bf9BZ2BgeK2+mPyfEz0Vj2LL71J82/6B2LL71J82/6CzsDA8Vt9Mfk+JnorHsWX3qT5t/0DsWX3qT5t/wBBZ2BgeK2+mPyfEz0Vj2LL71J82/6B2LL71J82/wCgs7AwPFbfTH5PiZ6Kx7Fl96k+bf8AQOxZfepPm3/QWdgYHitvpj8nxM9FY9iy+9SfNv8AoHYsvvUnzb/oLOwMDxW30x+T4meisexZfepPm3/QOxZfepPm3/QWdgYHitvpj8nxM9FY9iy+9SfNv+gdiy+9SfNv+gs7AwPFbfTH5PiZ6Kx7Fl96k+bf9A7Fl96k+bf9BZ2BgeK2+mPyfEz0Vj2LL71J82/6B2LL71J82/6CzsDA8Vt9Mfk+JnorHsWX3qT5t/0DsWX3qT5t/wBBZ2BgeK2+mPyfEz0Vj2LL71J82/6B2LL71J82/wCgs7AwPFbfTH5PiZ6Kx7Fl96k+bf8AQOxZfepPm3/QWdgYHitvpj8nxM9FY9iy+9SfNv8AoHYsvvUnzb/oLOwMDxW30x+T4meisexZfepPm3/QOxZfepPm3/QWdgYHitvpj8nxM9FY9iy+9SfNv+gdiy+9SfNv+gs7AwPFbfTH5PiZ6Kx7Fl96k+bf9A7Fl96k+bf9BZ2BgeK2+mPyfEz0Vj2LL71J82/6B2LL71J82/6CzsDA8Vt9Mfk+JnorHsWX3qT5t/0DsWX3qT5t/wBBZ2BgeK2+mPyfEz0Vj2LL71J82/6B2LL71J82/wCgs7AwPFbfTH5PiZ6Kx7Fl96k+bf8AQOxZfepPm3/QWdgYHitvpj8nxM9FY9iy+9SfNv8AoHYsvvUnzb/oLOwMDxW30x+T4meisexZfepPm3/QOxZfepPm3/QWdgYHitvpj8nxM9FY9iy+9SfNv+gdiy+9SfNv+gs7AwPFbfTH5PiZ6Kx7Fl96k+bf9A7Fl96k+bf9BZ2BgeK2+mPyfEz0VbJG5vBzVavgcipw+M/JINdJ9nZ+KT9txHzp4MveUi3lqsUnWNQAG9IAAAAAAAAIztZ73795luvqFQSYjO1nvfv3mW6+oVBDLyT7I35ZNlHe/YvMtq9QpyTEZ2Ud79i8y2r1CnJMYx8sFOUABsSAAAAAAAAAAAAAEe2i6rgslsqrjUKmIGLzcarh006p9hhb4Vc/HxIvgKp5HmgKm/XOo1pempJmd/YDHt7l0ydysjWrwSKJuGN+Dr6SJ7SZqrXeq6TTVuc5LfRTL2VUN4sYxitSsq3cFTuGqsbEXgrlanDKqbl01ZKa3UdNQ0cTYaWkiZDBG1ODWMRETK/fOXGVVeKqqqvSee2/aO8tux5Qo5b70uxRDkAoNQAAAAAAAAAAAAAAAAAAAAAAAAAAAAAAAAAAAAAAAAAAAAAAAAAAAAAAAAAAAAAAAAAAI9tF0jR3221drro0fT1UStVcJvRyIu9FNGv3sjHo1yL5DGGxW7VukL/U6RvDkSGSZVpJly2NXycYpI1Xoimbjh1ORU6Td6meuWrsoW9WtLtQxr9VrS1ZWOjykk9K1UdJH3PuntVqPavSitVExlTZhyTjtvQzW01nVMkBV/Jv2hpfrS1JnJ9UKHdp6xueL8N+xVCJ4Hoi5/nNchaB6jFkjJWLR6uhW2sagANiQAAAAAAAAAAAAAKd9ob7pf8AiHftxHQqd9ob7pf+Id+3EVNt+TZDLypuADzTngAAAAAAAAAAAAAAAAAAAAAAAAAAAAAAAAAAAAAAAAAAAZAAAAAAAAAAAAAAAAAAAAAAAAAAAAAAAAAAAAQvXf29n4r+84jxIdd/b2fiv7ziPHpdi+TX2X8XLAAC22AAAAAAAABGdrPe/fvMt19QqCTEZ2s979+8y3X1CoIZeSfZG/LJso737F5ltXqFOSYjOyjvfsXmW1eoU5JjGPlgpygANiQAAAAAAAAAABV3KT182x2eRIn7tdW71PStT3Tct+yTY6mtb1+FyeEtB64TKqiIiKqqvBEROlV8CGZNGUTtoGuudc1X2SzuRW5yrHwwSdxlehVnnTex+DuovXmjt20d3j0jzng1Zr7sLx5FmzD6iWb6o1TV+qd4Rk8yv93FT+6ghz05XKvdn75/kL+Q/MbEaiNaiNaiIiNRMIiJwREROhD9nnVEAAAAAAAAAAAAAAAAAAAAAAAAAAAAAAAAAAAAAAAAAAAAAAAAAAAAAAAAAAAAAAAAAAAAAD8PYioqKmUVMKi9CoqYVF8mD9nAGEtplrk2fa2jrod5tlvO+97ETuEikenZESp0b8UrmyNXpwvlU0vTzMkY2SNzXxva18b2rvNexyZa5q9aKnE/fKi2bM1Np6ppWM3q+lzWW1/Q5KmJjswqv4Esbnxqi8MuYvSxMUdyRtburra+1VKuStta82iPyj3U+VRqOa7i1zHI5uF8HUdXs3PpPdz6+XusYL8dF4gA7a2AAAAAAAAAAAAACnfaG+6X/iHftxHQqd9ob7pf+Id+3EVNt+TZDLypuADzTngAAAAAAAAAAAAAAAAAAAAAAAAAAAAAAAAAAAAAAABwqnJUPKg2pRabtEitc1a2pa6KmZnjlUTLuC54I7IFR8qflHVVruLbdZnscsHGolzw3+hY+HgVCRcjfavddRzVrbg9rkhZlmM9KuQw1qKjrnp9UatHqtZI93OPTjI7GVX4MYNT/wAHJ9vuX4pP2kA2sAAAAAAAAAAAAAAAAAAAAAAAAAAAAAAAAAAIXrv7ez8V/ecR4kOu/t7PxX95xHj0uxfJr7L+LlgABbbAAAAAAAAAjO1nvfv3mW6+oVBJiM7We9+/eZbr6hUEMvJPsjflk2Ud79i8y2r1CnJMRnZR3v2LzLavUKckxjHywU5QAGxIAAAAAAAAACf5yYkVNypdautFiljhfuVdxzSRKi4cyNU+zyNTqXm1Vuf56lg8jfZ0th05A+dm5XXRG11Sip3UbJGotNA7rRzYlaqp1K9U6jPdTbk1ztBgt7vslqtCqtRjix0FK5Hzx5TgqzT7kS9GEc9eo3c1qIiIiIiImEROhE8CJ1Ieb23N3mSftwhRy23rP0ACo1AAAAAAAAAAAAAAAAAAAAAAAAAAAAAAAAAAAAAAAAAAAAAAAAAAAAAAAAAAAAAAAAAAAAAAAAOFMObeLVJorXFPe4G7trvL1fUNbwY173I2sY7CYb3StmTPFcyY6DchUXKy2ft1BpuriY3NXRNWto3Y485C1VfHnqR0e8hKlprMTHoROnF/aCVsjWvYuWvajmr05a5Mov6z9lN8knWC3KxtpJnZqrS9tI5F4PWnVFWlVW+Dda+PK9cK/Hch6nDkjJSLR6ujWd6NQAG1IAAAAAAAAAABTvtDfdL/AMQ79uI6FTvtDfdL/wAQ79uIqbb8myGXlTcAHmnPAAAAAAAAAAAAAAAAAAAAAAAAAAAAAAAAAAAAAAA4yB8N/u0NDTTVdQ5GQwRuke5fAxquVE8vA8873cK3aLq9sbEetG2VGMbxWNtPC5yc54Ec9mF+Isrlz7W3SyJpy3yOXi1atY85e5V+xsY5vFc8UVEUtDkZ7JmWO1tr6ln/ALQuDGyO3v8AZxKiPiRqL7h2HYXAFF8uey09tS0W+mRrWU9Oxm6iIirus3d5cda4O/8A4OT7fcvxSftIdF/CI/x1Sfksf/M73+Dk+33L8Un7SAbWAAAAAAAAAAAAAAAAAAAAAAAAAAAAAAAAAAEL139vZ+K/vOI8SHXf29n4r+84jx6XYvk19l/FywAAttgAAAAAAAARnaz3v37zLdfUKgkxGdrPe/fvMt19QqCGXkn2RvyybKO9+xeZbV6hTkmIzso737F5ltXqFOSYxj5YKcoADYkAAAAAAAAEQ2y6oSz2Svrsoj2QrHAnW6eZUjiRP6zk6OhEVeol5m3la1clzuti0zTuVX1ErJ5mtTKtWd6wQqvUqtYlQ7HlavWhW2vL3eKZa8ttKrL5AeiOxLNUXqdqrV3eZVa93uuxYVcjFyqr7uRZH5695vgNNHV6RskNtoKSgp2NZDSU8VOxrUwiJGxG8PjRV+M7Q8x91ByAAAAAAAAAAAAAAAAAAAAAAAAAAAAAAAAAAAAAAAAAAAAAAAAAAAAAAAAAAAAAAAAAAAAAAAAAAB+JGo5FRUyioqKi9CovBUVPAp+zhQMJUVF/oftIqbeiqy33dcRIq4ZzVY7nadVVeCqydrmZ6t53hNNFS/whukFfQW3UMCYntlS2lncidNPUuR8D3L0/Y6iNGp+VL4Cc7Nr+26WmgrkdvLUU8bnr184ibsiL4F3kVceU7PZeXhNPwtbPb0SEAHXWQAAAAAAAAAAFO+0N90v/ABDv24joVO+0N90v/EO/biKm2/Jshl5U3AB5pzwAAAAAAAAAAAAAAAAAAAAAAAAAAAAAAAAAAAAAKt5SG02HTdommV6dlTIsVNGi5dvPRWo/dTjuouOJZF2r4qWGWonekcMLFfI9y4RrU6VU8ztuWuZ9X6jRvOJHSpP2LSI5e4ZGrka568ccXMz8YEw5KWzyo1VfZLxcEdJS00vPSufnu51VJIkbn3TEVHJwPQiKNrGo1qI1rURGonBEROhE8hVGxh9g0/aaaghraZHNYjpnb7d50ipl28vWiKqk1/08s/8AL6b5xAMY/wAIj/HVJ+Sx/wDM73+Dk+33L8Un7SEU5fF3pay8Ur6aeOZqU0aKsbkcidPDh1nc/wAH/faSimuK1U8cCLEmFkcjc90i8MgboyDJnKq5RSUnY1Hp6sa6fnEfUSs3sIzi1YlxjjlUU0dsxrKiotVHNVLmeWFr5F8KuRFz+sCSgAAAAAAAAAAAAAAAAAAAAAAAAAAAAAAAheu/t7PxX95xHiQ67+3s/Ff3nEePS7F8mvsv4uWAAFtsAAAAAAAACM7We9+/eZbr6hUEmIztZ73795luvqFQQy8k+yN+WTZR3v2LzLavUKckxGdlHe/YvMtq9QpyTGMfLBTlAAbEgAAAAAAAlkx/n6TOvJmof9JdoN1vsnd09udLJAq8WruqlJR7q9SpEze+Utfbdf1tun7pVNVUk7GfDEucKkk6c01UVOhURzlT+ifJ/B96U7D01JcZG4lu1ZJIxVTitNSqtPGvh4ytnXypuqcbtS/lT91TaLejSKHIByFYAAAAAAAAAAAAAAAABwcgAcHIAHAA5Bxk/hUVsMf2yWJn9ORjf7VA+gHT1eqLbFxkr6NnhzUw/wCI/pYb/RVyPWiqoKpIlRsiwStk3FXKojt1eGUz8igdoDptX6ooLRTLWXGqho6ZrmsWWZ6Mbvu4Nair0uUgcnKG0c3pvlIv9Fyu+TCAWqCnpeUtoxv/AGuxf6MUrv7GnZ6H276ZvVbHb6C4JLVSoqxRuilj31amVa1z2oiux1eQCzgdff7rBQ0tRW1UiRU1LDJUTyuzhkUTVe93DiuGovwlNfXY6K/l9T6PrPZAXqCik5WWivGFT6PrPZH9qDlT6MnlihZcJkdLI2NqvoapjEc9URN5748NTK9KgXeD8MeiojkXLVRFRerCplF+Qqa7cozSNJUzUk10a2anlfDKjYpnNbJG5WvajmtwuHIqLjrRQLcBUkHKQ0a//tmBP6bJG/2tPri5QGjnf9u0Kf0pEb/aBaAPjs9ygrIIqmllZPTzsSSGWNyOZJG5Mo5rutD5rnqKhpZGw1NZTQSubvJHLNGxytzjOHLnAHag66G90T/cVdK7P4NREv8AY4+6ORrky1yOTwtVFT5UA/YOAByDg5AAHAHIAAAAAAAAAAAAAAAAAAi21jS0d7slytcmESspJY2OVM83KjVfBJjwtlax39UyjyLb3J2HcbPPls1vqXOSN3uo0kcrZGr5Ula5PiNquT/P+eow5W0i6Z2o1ECJu0t5V0jERV3d2tasu8qdCuSpikTyJIWdjybmWJTx20tDSIAPTQ6AADIAAAAAAAAKd9ob7pf+Id+3EdCp32hvul/4h37cRU235NkMvKm4APNOeAAAAAAAAAAAAAAAAAAAAAAAAAAAAAAAAAAAAAOg2iaeS7WqutqvWNKynfBzicFbvY4pj4DMDeRdAnFLi7Phy7P6mmvgBkb6zZnjSX5yT6B9ZszxpL85J9BrkAeYXKW2XJpevhpW1DqhJIWybzlc5Uz1d0h9/Jk2QJqqSqY6pdTpAzey1zkzxRPvSd/wiP8AHVJ+Sx/8zvf4OT7fcvxSftIB3K8jCHKOW4uVUVF4q5V4fChqvTNs7DpIKbe3uZjZHveFGtRuf1HZAAAAAAAAAAAAAAAAAAAAAAAAAAAfhZWp9835UA/YOGuRehUX4OJyAAAEL139vZ+K/vOI8SHXf29n4r+84jx6XYvk19l/FywAAttgAAAAAAAARnaz3v37zLdfUKgkxGdrPe/fvMt19QqCGXkn2RvyybKO9+xeZbV6hTkmIzso737F5ltXqFOSYxj5YKcoADYkAAAAAAAAzzy3b9zduobaxe7q6hZnsTO8scCYYqY6cyOx8hrPZVp76k2S023GFo6Cmgf0cZWxNWZ3DrWRXr8ZkDaFTJedpNgtru7ipZKWWVvumq2FXVkrHp1I5IEav9M3KiHmdtvvZZ+yhlnW0uQAVWsAAAA4A5BxkKoHIIlq3aVYbS1HXC60NPnO6108avcqdKNY1VVXeQqTU/K+0rS7yU/Zte5vVTwbjXL5Hzq1qoBofIyZFs3K1ud0uNNTWvTUktNJUxRvesk003NSPaxz1SGJWRK3KrlXKnDqNcYVU8C4+HCr0AcuciJlVRETpVVwifGRu+6+sdD92Xi2U2OCpPXU0a/mukzn4jLepuTTrO81dStz1LzlPJPK5iS1FXPEsbnuVu5S7+5C3dXgxEwh3Fg5E9sZurW3esnd98yGKOJnxOVVcBaN85S+iqRcOvcc7s43aSmrKlPh5yOFY8f1i1LNcoKyngqqaRJqeoiZNDK33MkciI5rk8iopStl5KGj6fCvpKiqVP5RVPVF+FGIn9pdttooqaGKngjbFDCxscUbEwxjGJuta1OpERAM27ZuVJLY7xWWalsctTNSOY3nZZHsSXfja/fjiY3eWPLlRFzx3VIJVcpbXla3Fv0u+NV6HQ2241a/rYqKbRdTsVd5WN3sY3lam9jwb3Tg/qnQBiWPVG2W4p9it1VT73RvUdNb1T9LexU+M07sHg1FHZadup3Mddd+VX7r45HtiV+YmzPhVY3So3KKrFVMKnHKKT7CIAKM5SOya/ajqKOS0311shhjeyaDfqImuc5UVJWup1RXLhMYcVO7kf3yfCVWrFei+6RYquf9clSmTZYAx/Q8iGmT7ff53+HmqKOP9uR5c3J/2GW/R7q2SkqauqmrmwskfULGjWshV7mtZHE1EyrnquVyvRjrLaAER2pbPbbqSi7AukT5IElbMxY5HRSMkblEc17F8Crw4laU3JL0Y33VFVSeFXV9Uir+ZIif/svkAUjFyVtEtXKWqVf6VfXO/U6fBJdD7D9MWWrZXW+2MhqokckcrpJZHM3kwqt5xyoi4zxLJAHx3a3w1cE1LURtmgqInwzRPTeZJFI1WPY5OtqtVUK0Tk7aN8R03+//AIi1wBVP1u2jfEdL/v8A+I/dJyfdIRSsmjslMj4ntexVRyojmqjmru5wuFROktMAflrERqNRMIiYROrCdRUl95OGkK2omqZ7UnPVEj5ZVjqKiJHSSOVz3bsciI1Vcqrw8JboAo1/JR0SvRbJ2r5LjX/85lOvrOSHo96LuQ10XDhu1srseX7JvGggB0uitN0tooKW20THR0tHEkULXOV7kamXZc93Fzlcqqq+X5Kd248meg1Rc3XSS41dJO6GOFzGMilhVIt7dc1HpvNXuuKZxw6i/ABjafkTyxKrqPUjo3dSuoXNX43RVKH85OSnquFP9W1aq46EWW4Qp8jJXf2GzQBV/Jy0Ve7Hbp6a+XNLnO+pWSFzXyyNhi3UbupLMiOcrlTPRw8p1nKbk1oyCidpGNJVbJIta1iwJPjdTmlRKh7UdHnKKjFVcqnDBcZwBiNdrW1i3OxV2OrnYnSq2WaRFx4Z6Zrm/rPtj5XOoqTH1S0w1iJ7p3N1tM5fDlJm4Q2fg/MjEd0oi/CiL/aBR/J35QkOrqqpo222ejlp4Wz7/OJNCrVduq1XI1FY7wZ6S1tcast1kopLhdKplJRwq1r5Xte9d567rGMjia6SV6qvuWIq8F8B2VLb4InOdFDDE5+N90cbI3Px0b6tTuvjOp19o6gvtDJbrnAlRSyuY9Wq5zXNfG7eY+NzVy16L1+VenKoBGbHtz0hWInM6htqb3Q2om7Dcqr1blYjHE4tV5o6pN6lq6apb+FTzxTJ8sblQz/e+R1peZHcxJcKVy9CtmbK1v8AVe3j8pAr3yK54XpJab8rXs4otTC6ORF8DX07u5XygbLyDL2xHZhtAs16pHV98fV2Zm/2TFLXTVbXs5pzY2RxVG8sS76sXuVToU0VrK8Ot9ura5tPLVOpKaaoSmgbvTTrFG5/NRtTi567uETygdwDJWneWnRbysu1kq6N+cL2PM2oa1PC9JmxvT4mqWjpXlL6PuGES5tpXquN2sY+n4r0JvPTC8fABcgOvtV5pKpqPpqmCdrkRUWKZkmUXinuVyh96KByDgAcgAAAABjz+EGtr6Or0/f4W93TzrCq9CK+JzaiJHKnFE+xqn9ZTYZSnLV0+lfpC4O3cvolirGLjLk5p6b6J8LVwIH12W4R1dNT1MLt6KoginjenQ+OVjXscnkVHIp9hWfJguy1elrY5eLqdslI7jnHY0jo2J5PsaM+VCzD1mG29SLdYh0aTrWAAGxIAAAAAAAAU77Q33S/8Q79uI6FTvtDfdL/AMQ79uIqbb8myGXlTcAHmnPAMgAAAAAyAAAAAAAAAAAAAAAAAAAAAAAAAAAAAAAAAI/rrWFvstK6ruNRHTwt6Fe5Gq5fAxFXipIDptU6ZorpEkNdC2eNFyjXYxnh9AHm5yptpUGpr2tXS7yU0UTYY0cmN7cz3fT1nd8j7atSaauM6V6qlLVsRivTGInIud5VVcY4G4F2M6c8Ww/In0DtM6c8Ww/mp9AEs0rqCkulLFW0UzJ6eZqOY9jkciovlRTtTrtPWSmt8DKakibFCxMNY3oRDsQAAAAAAAAAAAAAAAAAAAAAAQvbLruPTtrmuMkSzc2i4Zxwqoirxx0JwJoV7t+0LLqGzy26GRI3yZ7tergqf8wMtU+3/WWq61KGwU7aN0i4yzL2Rs6N+VzkVWN8vlJ/V7GdcyxLK/UOatzUVWbzUi3sdGUZnBYnJm2Ns0rSzNkVktVO9HOlwmUTCJhF6k4IXGB5+VO2XWmj7itHdnrUMjVMxPTdjlanWyTGVTBsrYptHpdT2uK4U6bjl7iaFV4xytxvpjp3d5VwvkMzfwkdPEklmkajUlfz6SKmN5UTG7k7j+DkZKlLclXe5lVajM53d5H91jy9AGu0AAEL139vZ+K/vOI8SHXf29n4r+84jx6XYvk19l/FywAAttgAAAAAAAARnaz3v37zLdfUKgkxGdrPe/fvMt19QqCGXkn2RvyybKO9+xeZbV6hTkmIzso737F5ltXqFOSYxj5YKcoADYkAAAAAAz9K58HX/nyA+O+1HM0tTL73BK/j5GOUjadI1JUPyXonXbaNfLo5qc3RR1bUd0o2RZI6SFU8isimU2uhkj+DnoN+DUFyVFR9TWQwqq+CNrp+Hh7qod8hrdDydp1tM9XNmXIODhz0TKqqIiJlV6kTwqvgIsP0cEJq9rGnYrjT2p11pFrql6RRQMkR6845cMY5ze5a5zuCIq8VO+1tT101urYrbKynr5KaVtJNImWRTq3DHuTrTIH03690dvhfU11VT0dPGmXzVM0cETfBl8ioiKvg6ykdecrPSduRzKWaou87cojKGJWw73VvVVRusVvlj3/gKvt3JS1Fep0qdVX5znoqpiOV9ZK1qrxSF8uI4mrhF3UaiF2aI5Nuk7UjVbbm1srcLz1c5Z1V3WqMXuETyYUCtdmPKYvuob5Q0dFpzFtmqGR1MzVnmfTwPXDqiSoRqRMRiceKccY6VQ01qW2dm0dVSc7JD2TBLDz0S4kj5xit32L0byZPqoKKGnjbDBFHDE3g2KFjYo2p/NYxEa1PgP7gZW0/yLbU2TnLld6+uXeVytibHTI/pwj3u5x6rjHFHJ0Ft6S2BaStiN7HstLI9q5SWrR1XKjvCklQrlb8CYQs45A+OgtVNTojYKeGFqdCRRsYn+6h9aIcgDhDkAAAAAAAAAAAAAAAAAAAAAAAAAAAAAAAAAAAAAAAAAAAAAAA4CnIAj1+0RaK9qtrbZQ1LXdKTU0T0X4ctKn1jyUNI1++6Glntsr+O/QzuaxF6t2CbfianwNQvkAZR07ySKq1XOjrLbqaohpoKqColiWBzJntika9zEfDMkb1c1u73TMJnoXoNS106xRSSNY6RY43PRjfdPVjVVGtz98uMfGfScYAyTaOWdDDUyQXmw1dI1sj271PI180SI5WpzlPUbiOcmOOHp14RS8NB7cdLXtWMobvTc+/CNpqnepKhXfgtjqEbzi/0FcnlJHq/Q1ou7VbcrdSVnDG/NCxZUTwJKiI9E8mSi9oPI7sNYjpLXPUWubiu5vdkUyr1JuP7pjfgUDSyO6/7DkxnpzZrtN0vWUcNsr/AKp25aiJjo3VCS00UG81H85BVLvU8O5707PTwNk76NaquVEREy5epEROK+RAP6A6iw6mt9fvpRVlNVLG5WvSGVj1arVw7LUXKYU7bIHJHto9q7OtFyo1TK1FFUxo3py5YnKxMf0kaSE4wYkYi5D1zXsO8Wx/B1JWx1HlXsmJ0EiJ5EdRt/PNFGadglMls11qe2N4N3qxrU8KQ1aPYuP6L1+U0sek7Ptrhj7awvYJ1qAAutoAAAAAAAAp32hvul/4h37cR0KnfaG+6X/iHftxFTbfk2Qy8qbgA8057HHKE2xa709cajENPDbXTvbRyrAydHRJ7lz3t9wuOpcFWfXb6v8Af6T9FYbI5Ueno7jpq4RPb3TGJIx2MuarF3lx4Og8waWNFlYxeKLI1q/ArkRQNq8nzaXtB1FW0kz46f6kc+iVczoI4V5nddlYt5UV/Hd9zk101OCeHrIXsPt8VNYbbFC1GMSnZwT4Cagfwr1kSKRYUR0qNXm2qqIiuxwRVXgnEw3tT296/sVdNT1rKanYssnY6rTMcx0W8qxokicHruYybrUyj/CJVNO222+N6MWokkk5pfvkRu4rsfEBSicrbWC8EnpFVeCJ2IxV4+BPCaP5LusdaXuRau8shjtisRYl5lsMkjl8DVw7dxjj0GZOSJsnXUV1Sepjd2BQuZLKqoqNkeiqrGovX3TUynwnpBSU7ImNjjY1kbE3WMaiI1rU4IiInQgH9QAAAAAAAAAAAAAAAAAAAAAAAAAAAAAAAAAAAAAAAAAAAAAAAAAAAAAAAAAAAAH8KushhTemljib+FI9rE+VyoQDaJtn0/ZIXyVNfDI5E7mKmclS9zvvWqkKqrcr1n0bZtnX+kVKymWrlpUa9Hq6JytV2M8Fx1GetU8jFsjXPpLnuy8V+ytc/fVEXCZ8K+ECstV0uoNpV752mpJYaFio2N8yLHFHEq4WRrpERrnbvHCcTa2xPZ3TaatUNvg7pyJvzyr0ySuRN93Hqyi8DFFJr3Vmz2sS3VKrJTNd3Mcqq9kkef8AZrnCOwbS2I7TaPU9uZWUyo2VqI2ogVUV8T8JnKeDOU+ICfoAgAheu/t7PxX95xHiQ67+3s/Ff3nEePS7F8mvsv4uWAAFtsAAAAAAAACM7We9+/eZbr6hUEmIztZ73795luvqFQQy8k+yN+WTZR3v2LzLavUKckxGdlHe/YvMtq9QpyTGMfLBTlAAbEgAAAAAIdturux9O3mXe3HJb6hjHeCSSNWR48u85pMSpuVtUbmla5ucLLLRRpxx/wC9wvcnxtapp2mdMVp+0oZJ0rKScgCg5rSaTY+6a6qf82/ms/7pohSn+SZDHQ6JtMkr2RROp31T5JHIxjWyvV6uc5y4ROPSpa8E8VTCj4ZGyxTMVWSwvRzXNcipvMe1cL8KHlXPVTtr5Qdh0xvQSSur7kjVVtvpHNVzXL7lKqdfsdMxVVOnedjijVM6Pve0XaKrmUcf1Ls73K1XtfJR0W7+C+oVFnq1RFRe4RfgQuzQ/JZsVFcqi5Vz5btJLPJPDDVoiwxOkesm89qfbnoq9LvAX1TU7ImNjjY2NjE3WMY1GMY1OhrWtTDUTwIBn3Y3yVbNZJ6a4V00t1udPKyoY9+YqSKoY7fZJHAiq57muwqOkc7i1Fwi4xocIAODkAAAAAAAAAAAAAAAAAAAAAAAAAAAAAAAAAAAAAAAAAAAAAAAAAAAAAAAAAAAAAAAAAAcHIA4U/jXUzJYpIXplksb4noi4y17Va5Mp0cFXif3PyoGNNecli72eoS46Nu0qSNcsjaOafseraqKqolPUtxHUpxxuyI1Ux7pyqfvQXKku9mqvqXrW2TtdGqMdVxQ81VxqmMOlp3YjqI8LnfjVF68OyXdyioJ4mW+4QSyRrTzPjVWOVNx0jUdG/h5Y3NXw7yIdVa6yy6vpfqbf6SCWq3NyORzUY9/gfBKndRyovHdyVviaxk7ueE/3drwTLbYo2zH+uusxaI86THXrHrr6LV0Zqy3XmkjrbZVxVlNInCSJ3Fq9bJGLh0UidbXIiod2pmvZHyc67TOpGV9BeH/AFG3ZVmpHbySzo5jmshmai829GuVHI/GU3cdZpNFLLisR3RqUG16rRe5bWI5cfhOqrexzU+OREU0UZ35SrEpdqVkqOhJobVO5ejOJqmlX9UGDRKnb7KtrSY+63s/k4AB1VgAAAAAAAAU77Q33S/8Q79uI6FTvtDfdL/xDv24iptvybIZeVNwAeac9HNpcDpLRcGsbvO7FnVE+CJ6r0nktTfdLPx7f3h69aobvUNa3w0lSnywvQ8iKqF0NW5jsb0dRx8GUfkD1f2SfxLbvydn9hKiEbCqhZdPWuR2Mupm5wTdQPxPK1jXPe5Gsaiuc5VwiIiZVVXwHm1yj9Yz6t1P2LSK50McyUdMzCqiStcsUkiY+9VWopqzln7TG2SzPo4H4rbg1Y2Ii9EK5bIvDii8UKc5BezFaqeS/wBYxXRxqraVXplHybyo9y56VRcLkDT2wTZ/Dp2zU1ExqJKrUlqHY4rM9EWTq6N7PAsEAAAAAAAA6XW2oobTQz187XvigbvPbHhXqnkRTP8A9efpz+R3H8yP/EBpoGZfrz9OfyO4/mR/4h9efpz+R3H8yP8AxAaaBmX68/Tn8juP5kf+IfXn6c/kdx/Mj/xAaaBmX68/Tn8juP5kf+IfXn6c/kdx/Mj/AMQGmgURs15T9kv1zprXS0tcyeqc5rHStYjE3Wq5d5UdnoQvdFAAAAAAAAAAAAAAAAAAAAAAB/GariZ7uRjP6b2t/tUpjlK7cqbTVOtPTq2e6TJiKBFzzaKiYdJjimUVceVDHt3g19qdJKrmLjUwPzIjWK1jGN6cN4tdhPKB6R/Val/lMHz0f+IfVWl/lMHz0f8AiPI1aO5dlrQ/6x2Wj+b5jnXb+/8Ag+6xknLNi+tlRFS0XJUVEVF5xvFF4ov20D05+qtL/KYPno/8Q+qtL/KYPno/8R5e3fZNrCkhkqKm2XCKGFivkkdK3dYxqZVy4l6MEOsFLca+dlLR9kVFRJ7iJkjt53wZd5QPXP6q0v8AKYPno/8AEf1p6yKTKRyxyKiZVGPa5UTy4XgeYXaU1v4ouXzjfamsuRDs+uVnpKyoutPPS1M7lj5uodlebY7eR3ByonSBpFVIXrHatp6zvRlxutNTPXoa7fevX7013gKY5Ue3KalmSwWBefuUyrHM6PisOctViY/2nQvHwmdtoPJ/1HR2qW/3CVj0a1Z54XK9Zo2qmVc7K4ROPV4QPQPReuLTeY+dtdbDWRp0rHvJj+q9qL+okWTzT5Hepami1JSRRSOSOpc2GRquXd3XLxXHRk09yjtuE1NKlh081aq7T9y50fdJC1cNXinQ7uk+QC5tXbQbNaW71xuFPTIiZXfVXYx05RiLgjVr2+6QqZWQQXumklkcjWMRlQiucq4REV0SJnJkLWXJy1XJQzXmuq2Ty7izTQPc9Z0RE3nZT3PBPAV7yZ7Atfqi20ytyiTK9/k5tFdx+NoHqW12UynQvFPjPzNMxiZe5rUVcZcqNTPwqcxphETwIifIhm7+EEr6mnsFA+mkkjctyajnRKqLu8zIuFx1ZRANIRStemWuRyL1tVFT5UP0Yt5H236npYXWm91Cx7q5p6mV3c44Za9y8d7Kr8hqSp2mWGOPnn3OlSPGd7nExgCj/wCEEsdPLZYa1zG8/TytbG777EjsO/Un6yrP4PGsnZdq2JirzMkUfOp1cFVW/rP48sDa1FqWemtVnSSohik3XvjarmzyPVEYjFTy+EvHkX7JZrBb5K2taja2ua1XRr0xxph7E/pcVRQNDgACF67+3s/Ff3nEeJDrv7ez8V/ecR49LsXya+y/i5YAAW2wAAAAAAAAIztZ73795luvqFQSYjO1nvfv3mW6+oVBDLyT7I35ZNlHe/YvMtq9QpyTEZ2Ud79i8y2r1CnJMYx8sFOUABsSAAAAAAo/lqSq3TsbU+/uFOi+VGsmd/aiF4FA8uCTFkoW/hXJn+7TzqVts+Tb2a8vLKAVGr7tqylsGh9PI9tJT0UENZI5XRtnkiTM01Q5EyyjjTq47yr0KuEXcex/RTNO2S32eOd9SlFE5rp3purLLLLJPM5rcrzcfOSv3WZXdajUyuMrUXIX2dx2ywtussbezbuiTb6pl7aRMpBG1cZRqplyp4VNFnmFAAAAAAAAAAAAAAAAAAAAAAAAAAAAAAAAAAAAAAAAAOMnJHNol++ptvqKpERXtRGxIvQsj13W58mVz8RG9orGs+jbgw2zZK46RrNpiI95d9JOxvBzmtXwK5E/tP2jkXo458Bjq7Xapq5VmqJpJZFXOXOVcL/NToYnkTBL9BbTau2NdFLvVcKp9jZI9d6N3WjXrxVvkObXtSk20mNI9Je22n/Qe048MXx3i9/Wumn4mZ46ffRpfIyUj29H/wAgb87/AP0cdvST+QM+dX6Df8fh6/0cn+Ee1P8At/8A9V/yu85KOXbnN1UEfxyu+g4XbnP/ACCL5130D4/D1/pJ/CHaf/bj+av+V4goxdudR/IIfnX/AEHC7dKnqoIPnn/4R4hh6/0ln+D+1P8Atx/NX/K9Dkojt6VXi+D56T/CcdvOr/kFN89L/hMeIYPq/pKX8Hdqf9uP56/5XuChl25Vn8gpvnZP8Jwu3Gt/kNN85J9A8QwfV/SWf4N7U/7cfzV/yvsFBLtwrf5FTfOSfQcLtvrv5HTfnyfQZ8Qw9f6Sz/Bnaf0R/NX/ACv4FAdu6v8A5JT/AJ8n0HHbur/5LTfnPMeI4ev9JZ/gvtP6I/mr/lf+Rkz927Lj/J6b/fOF22XL3im/3zHiOHr/AEln+C+0vpr/ADQ0EDPa7arl7xTfI76T8rtpufvVN+a76R4lh6/0Z/grtL6a/wA0NDDJndds9097pvzXfScdua6+9035jvpMeJYep/BPaX01/mhokGdO3Ldvwab5t3+I4XbJd/BTfNr/AIjPiWHqz/BPaXSv80NGnCmcl2yXjq7GT/wl/wAR+V2x3nw03zK/4zHieHqz/BHaXSv8y7do9n7PtdZTImXuiV8X42JUkj+DumonxqZQhkc1WvarmuRUc1UVUc1U4oqKnFFJ+7bBeVReNLx4faF/xkCqpVke+RURFke57kamGor3K5UanUmV6Dm7dtGPLMTTzh7X/SnZO19n0yYtpiN20xMcdePlP5jReeyXaelTuUNxcjajCNgqFwjZ+rck6my+Xod5FxnoeWPbNSOttPctP109P9THuqKqnpnuZLKzHCZuOEqM62L1KvBSpvL1p0f8i5dk+0zeRlvubkejsRQ1D+6RUXuUimz05zjK+HiW9i2/XSmTz9JcD/U/+k9ze2nZI4edqR6fev26x6ejH+0baf8A6T3XS9zlakdypoaeguCNRUjc+CvlliniVUxuSMqXLu8VaqOTimFXbjl4/rMVcpLQrNO6ybDTt3KOsmpblSNRO5ZHPOrJI2r4GzRypjwbptGnXLGL4WNX5Woev7Knhb9nhNn9X7AB2FkAAAAAAAAU77Q33S/8Q79uI6FTvtDfdL/xDv24iptvybIZeVNwAeac98d7bvU1S38KCZvyxuQ8k9dQcxdq2NVzzdU5FX4HIeuNc3MUjfwo3p8rVQ8nttECRagu8adDK2VE+JUA9JuTnO2XTFoezi11K1UUm94uEdLBNUTKjYoWOke5ehGtTKqV1yVu9Cyfkjf7VKu5de1L6n0LLJSSKlVWpvTK3jinyrJI1x7ly7zcAZ22gXKs15q5KeBZFhknSGNE4pDC16Mkmai9WFRfAehugtNQWi301BTtRrIImNcqJjfejWo+RcdauTJnbkKbLEoaJb3Vxr2TVp/q6Pbh0cS9y9OPhwimpgAAAAAAAAOi17ppl3t9Rb5JXwsqGbiyRo1XN8qI7gpmn6yG1+PLh+jU30mswBk36yG1+PLh+jU30j6yG1+PLh+jU30msgBk36yG1+PLh+jU30j6yG1+PLh+jU30msgBk36yG1+PLh+jU30j6yG1+PLh+jU30msgBnbZTyVaDT92pbtDdqyokpXOckMsEDWP3mq3CuauU6TROAAAAAAAAAcAflZWp0uai/Cg55n4Tfzk+kwDymdOasn1RdJLfT3t9I6RnNOpVqkhVObbncSN27jOejylbf6I66/kuovzq3/EB6j88z8Jv5yfSOeZ+E385PpPLj/RHXX8l1F+dW/4h/ojrr+S6i/Orf8AEB6j88z8Jv5yfSOeZ+E385PpPLj/AER11/JdRfnVv+If6I66/kuovzq3/EB6j88z8Jv5yHLXovQqL8Cov9h5b/6I66/kuovzq3/Ea65ClrvFLb7m28RV8UrqqNYkrllV6s5virOdVV3cgaQOHouOC4XwnIAzxScm6KbVFRe7pVvr6ZXJLTwStZwkVz1WN6J0Rty1Ux08fIXNrGrgttrq5kayKOKnkwjURqIu4rW9HlwSBUKS5aF+7C0tWRo7dfVJzTF6Fyioq4+IDG3Jvt0l21lRvkVXp2W6aZy8e5yqIv8AYemsTd1qJ4ERE+LgYR/g7rFzt3rq16ZZDT82xcdEu8x3T4d1xvACgOXLq11u04+CJ2J6uWOPGemF2WyfqUzXyENPLVamZUuTehpYJt7+m5qLH/YpIf4Q3Uiz3ijt7XdxSQP5xidb5FjexV+JVJ5/B1ae5qiuNe9MrUSRJEvgRiPa9PjUDWxw5uUVF6F4L8HgOQBW9k2MWWkvVRfGQI6rqFV6o5FVrJFxl7cr04ToOq5XlzSm0jd2qqJ2TTPgb8LkRcJ8hbplP+ESv3N2qioGuw6WoSVyIvFY0a9qoqeDOAMaaDv89uqufpY0fUqxWQLx3o5F9zIxE6XJ5Te3JS2RLbIFvV0+z3e4Zmc+TulhbIirhqr+E1WqvDgZa5Geg23nUEb5mKsFCnZGVTuXSMXgxfDwU9JI2I1Ea1ERrUwiJ0IicERPIB/OspmTRvikajo5GOY9q5w5rkwqLjyKQnSOx/Tlpq+zrfa4aaq4/ZmOlVe6znCPeqJnJPAAOt1FYqS4RcxWQMqIs53HplM4xn4TsgBTd+5NOkqrec22RwPfnL43SquV68LJg6dvJW07wRyzvYnSxzn7rk8C92X4AIHoXZDp6yrvUNugjkznnFRz3Kvh7ty8Sdo05AAAAQvXf29n4r+84jxIdd/b2fiv7ziPHpdi+TX2X8XLAAC22AAAAAAAABGdrPe/fvMt19QqCTEZ2s979+8y3X1CoIZeSfZG/LJso737F5ltXqFOSYjOyjvfsXmW1eoU5JjGPlgpygANiQAAAAAGe+XN/FFt84//AI0+DQhQXLfizZKJ34FyZ/vU86FXbfk29mvLyy1RslkifYrQ6Dd5pbfTbm77nHNNRcfHklJmLkF7TY6+0/UKolRK21p9gY5eMtE5e4WP8Lm17lUToy3woacRTzKg5AAAAAAAAAAAAAAAAAAAAAAAAAAAAAAAAAAAAAAAAI1tJsLrlbailYuJFRHxfjI13moq9SL0ElPypG1YtExPq24M1sOSuSnnWYmPeOLG1xoZqeR0M8T4pGLuua9qouc44ZTiSrQ2zqtuqPkb/q8LfcyzMdh7vAxE4qnlNLVVBBKqLLDFIqdCvjY5U+BXIf3YxGoiNREROhETCJ8RzK9l0i2szrHR7naf9eZ74d3Fjil/W2usftH+VFdo2s/l1N83Kfldhtb/AC2m/MlL5Q5N89n4en9ZcqP9Zdpx/vj+WFCLsNr+qspfjbKn90/PaOuHVWUnyS/4C/QY8Ow9P6yz/Gnaf1x/LH+FArsPuP8AK6Nfnk/+2cdpC5dVVRfnT+yL/Bnw7D0/rLP8adp/XX+WGf12H3P+VUP50/sj89pG6fymg/PqPYGgsAeHYen9ZP407T+uv8tf8M+LsSuv8ooV/wDEn9ifldid19/ofnJvYmhcDA8Nw9P6s/xr2n9Vf5YZ57Sl19+ovnJfZHHaVuvvtF87J7I0Odbqa8w26irLhUb3Y9DSz1k+43ffzNNE+aVWNym87cY7CdZHw3D0n8pfxv2l9Vf5IUT2lrt75R/OyezOO0vd/wAOk+df7M+j673R3vly/QHe0Jjqnb9pK2u5ue8QPlREV0VPmoc3KZ4uiRWZ/rDwzD0n8s/xv2l1r/LCB9pq7+Gl+dd/gOF2OXfw0vzq/wCAk9k5TujaqXmvqmtOqrhH1MEkUaqvBE3kRcfGW7bq6GpiZPTyxTwSt3o5oXtkikbnGWPYqtcmeHBeoeG4vv8Ak/jftLrT+Vnpdjt48FMv/jf/APJ+V2PXn8GnX/xk+g0gB4Zi+/5Z/jjtL/h/L/7Zt7T95/Ag+fb9BwuyC9e9wfPtNJnI8Mxff8s/xz2j/wAP5f8A2zT2or17zD8/H9JwuyO9+8xfPxf83Gljkx4Zi+/5Z/jntH/h/L/7ZnXZLe/5PEv/APIh/wAR+V2T3z+TR/pEH+I0yB4Zi+/5P457R/4fy/8AtmN+ym9on3Kz9Ig/xkMqIXRvfG7G9G5zHYVHJvMVWuw5OCplF4oaw2g3jsC2VlVlN6OFUjz1yyKkcSfnvb+syYiKqpjLlVcIiIqqqqvDyqqqpztu2fHimIrrrPm9p/pXtnau0aZMmfditZiI0jTj5z6+kaOET+3BbuyTZk6V0dfcWubE1WyQU68HSKmFbJL1ozPFG9fXw4HY7Jdl/N83XXJiK/g6CldjDOhUfN+E/gmG9Rb1XOyGN0kjmxxxtV73uVGsYxqZc5y9TURFLWxbBppe/wC0OD/qf/Vm9vbNsk8PK14/tX/P4Y5/hC3xfVXScbd3n2pVOkT77mXVNE2DPXu7zJ8f1i9aL7VH+Lj/AGEMR7eNet1NrHs2Fd6liqKShoV8NNTzqqPx1I+WSV/9c29A3DGp4GtT5ERD2HZX+79ngdn9X7AB2FkAAAAAAAAU77Q33S/8Q79uI6FTvtDfdL/xDv24iptvybIZeVNwAeac9w9uUVF6FRU+U8quUfC2PVl/Y33LbjOifFg9VjzA5W0KM1dd8MRu/UOevDG8q8N7y9CAbG5NmoIbdoanrql+7FTUyyKrl6EanQmfKqGWNE2ys1/rGSoqN51Pz6zTY3ubbTxqjUY1ehqq1EXCHx6q2oq/Sts07ROcrlYi1SNRcqq8Fix991Ka+5IWzBun7LHLM3/Xa5GzTKvSzKKiMTwJu7oFyWqhjpoYqeJqNjhY2NqJ4GoiIfUAAAAAAAAABHtoupFtFtqa/muf7HZvc1vbm9/WxwMqfXwL4g/87/6RrbV1ggulJNRVO9zMzd1+4u67HkXqKQ+tA0l+BW/pUgFcfXwL/wDD/wD53/0R9fAv/wAP/wDnf/RLH+tA0l+BW/pTx9aBpL8Ct/SngVx9fAv/AMP/APnf/RH18C//AA//AOd/9Esf60DSX4Fb+lPH1oGkvwK39KeBXH18C/8Aw/8A+d/9EfXwL/8AD/8A53/0Sx/rQNJfgVv6U8fWgaS/Arf0p4HTbHeVauoLzR2n6jdjdlOc3nuy+c3N1quzu82mejwmnkKY2f8AJt05Y7hT3OibVJU0yqsfOVDns7pFauWrwXgpcyAcgAAAAAAAYGAAGBgABgYAAYAAAAAFMXfwiup0WSgtSO4tTslzUXqXLOJsysnbFG+R64bGxz3L5Gplf7Dy75RmrnX3UlXKjt6Jk609MqLnMW8iJ+tVA1d/B66dWlsVVVyJ3dZV85Gv/dczGxE/OYq/GaayV3ybbCtu0vaKZ6YlbSsWXqy9Vdnh8GCX6vr+xaCqqOjmYXPznHQnhA8x+UxfkuOqLpUo7eRZWxphconNMbGqJ8bVN48kewfU/S1DGqd1IjpXKqYVd9d5M/KecjadK28OjcvCpr5Mr+Mncq8fjPV7Q1I2nttDC1ERI6WFvyMTpA7oH8YKhkmebex+6qtXccjsKnBUXC8FTwH9gB58cv2/dlahjpkdlKKFYlb/ADldvZXwrxPQKqk3I3u/BY535rVXP6jyn28376p6huVWjt5JJ3Ii5/AXc4fGgGsf4PDT/NWytrXt7qeZqRO/mI1UVPlQ1YVPyT9Prb9LW6NyYkexz3r4d5yq39SlsAAAAAAAAAAAAAAEL139vZ+K/vOI8SHXf29n4r+84jx6XYvk19l/FywAAttgAAAAAAAARnaz3v37zLdfUKgkxGdrPe/fvMt19QqCGXkn2RvyybKO9+xeZbV6hTkmIzso737F5ltXqFOSYxj5YKcoADYkAAAAABSPLShV2nGOT/Z3Cnd8GWys4eXLk/WXcVTysqZZNKXBUTeWOSjkTHSiJVwo9fgRiuX4ivtca4beyGXllUl62aXGzWnT+udMq+N3YNPU18MWZFp5cfZJebXKSUr0y17Ojp4cTVHJ324W/VdI1EcymusLE7LoXOx3ScHTUyuXMsC8F8KZwvRx/jyQKxtXou0o7de1kMtK5rsOarYpHRua5F4KnVhSr9u3JoqIap1+0dI6jrolWd1vifze9ImVc6if0Me73t3cr5OJ5dz2sjkyPsd5VjoZUtOr6eSiqoXcy+uWJ7N16Yx2ZTqm/EuPvmovhxxNVWW7U1bCypo6iGpp5EyyaCRskbvgc1cZ8nSB9wAAAAAAAAAAAAAAAAAAAAAAAAAAAAAAAAAAAAAcHIA4ByAAAAAAAAAAAAAAAQrbx3q6l8wXf/h9QTUhW3jvV1L5gvH/AA+oA8nTv9K6Out0Xdt1vq6zCqirBC97UVMZTfxu73FOGToD1x2X2imorPboKSGOnibR06oyNqNRVWJiq52E7pyr1qB5cao2e3y1t37haq6lYiZV8sD9xE8LntRWtT4TX38HXp65xW2vuM9TO22VUyQ0NC5cwvlgXFTXMa5F5vjiFFYqb3NybyLuMVNU1dNHMx0UrGSRvRWvjkaj2ORelHNdwVD+NmtlPRU8VLSQx09NAxI4YImoyONidDWNTgiAfYAABwcgaDjAOQY0A4U5Py4yKk5RtbI6KhoImvetRK6RWtaq76xJuxsTCccukVcfzEPp2UbM2UW5WVzEfVrxjjXiymz1+B0vl6uos6WFjla5zWq5iqrHK1FViqmFVqqnBceAge1ja9YtNQufcKtnZCNzHQwq2SqkXqTm0X7Gn852E+Eq/C1nJ3luM+n2dyO3MtNijY8X6K8ZvMTxtr/aNOCd1M7I2Okke2ONiKrnuVGta1OKq5y8ETBjHlDbaazVdW3SukUkqIah3N1VVEmOy8L3TI5P9nRt4K6ThveVMZ6S86q1ftQq1obZC+22JrtyoflzKZjelXVlQnGolwiYgZn3XFETum6k2GbHbXpSlSOlZz1ZI1Eqa6Rqc9K7ra33uJOpqFpwmK9rWzODTF60tZo3NmrZKalrrhUJvYlqqm4TR7jEX3MEbKVGtTh985URXKbNd0qZ25RkiVe1SzwKm8lPFaoXJ4G789Uv6p8/GaJO12VH6bSt7P5S4AB1lkAAAAAAAAU77Q33S/8AEO/biOhU77Q33S/8Q79uIqbb8myGXlTcAHmnPDzZ5bkSs1XUqqY342uTp4or3pn9R6TFK7XeTnZ9TXD6o1tRWRzc2kW7C5iM3Wuc5FwqLx7oDKfIu2XLersyvqGL2FQOSVFX3EkrVxzap18FPRSJiNa1rUwjURETwIiYQiWyrZ/Q6coG0FDvLG1cukkwskjujL1REypL8AAAAAAAAAAAAAAAAAAAAAAAAAAAAAAAAADg5M4cqDlDTaanS30dKklU9qu5yX7Wje5zjHHOHIBouWZreLnI1PC5URP1nWV+paCDHO1dOzPR9lYq8Ongi8Dz6sGqdb63rHU9JUz8znEnN45iBHfhL04wWrQcj+tfGjqu8OdO5MuVkkyM3l6cI7jjIGsaDUlBP9qq4Hr4Ekbn9a8TtGPRUyioqL0Ki5T9R517XdgeotMM7Pgqn1VPG7KyU7pd6BOGFk3lwvT1Ic7D+Uxd7TUxQ3GV1dRPe1r+cXMkbVwibi9GE8oHoqDrdNXqC4UsFZTPR8NQxJGORUVFRU8h2QAKAoFA8svas2xWpaKnf/r9cjo2onTHHhqq5yeBzXKnxKYR2T2B90vVBSNyrpahjlx0ruOSRenyIp6f6x2b2S8StnuVup6uVrUa18rd5UanQieA+PTmyXTtuqY6uitVLT1MWVjljZh7cphcL8AEzooWxxsja1GtY1Go1OhEROg6LabbpKu0XGmi4yT0skbE8LnJwJGhwoHkCk0lBcVkVv2WlqnKrXIqd1HIvBUX4DT955XNXVW2K3Wi3TRXF0TYFmfuytVVRGK6Nsbt5q8esvDaTyZdPXuqdVyJNSSvXL1pVaxHr4XZTivA7jZjsC0/YXJLT0/Pzt4NnqN18jfgXAHQckjRF6ttFNW3msnlmuC88lLI9VSFXrvq9UX752VL3OETgcgQ7bNf/qZYrlW53Vhpnrn4U3f+Z5Y2ehfcblHAzi+rqlRuPDI9V4fKetuorHS3Gnkpa2FlRTypiSJ6ZY5PAqdaERtWxjTFLNFUU9no4poHtkikazumPb0OTygS3StG2noaSFqbqR00DcJ4Ujai/rydmcNbhMJ0JwQ5AAAAAAAAAAAAAAIXrv7ez8V/ecR4kOu/t7PxX95xHj0uxfJr7L+LlgABbbAAAAAAAAAjO1nvfv3mW6+oVBJiM7We9+/eZbr6hUEMvJPsjflk2Ud79i8y2r1CnJMRnZR3v2LzLavUKckxjHywU5QAGxIAAAAACJbZaFanT95hRu851uqtxPDIkTlZ8e8jSWnyXmn52mnjXokhkZ+cxyEMsa0mPsxaNYRH+D7uCS6VdDn7mr6luM9HOLzv940ZgyL/AAdVfzbdRWtc71NVwzoi9PdpJTrj46f9ZrpDyU+bmq92u7HrFqePFypG9kNbuxV1PiKsjRM4bzyJ9kjT8B6OT4DL9z2M650PNJW6Yr5a+iRVfJDD/tGJj7qt8irHK5ET3TeKJnCpk3GcAZR2b8sKmVW0mpqCa21TMNkqYI5H06uwiK6SmenPU65Ve5TfTh0oaT0pqy3XWFk9urqasiencuglY/o6UVEXKKnWnUdBtI2S2DUEasuVuhkkX3NTEnM1Ma5zlk8WHdKJlM8cJnJnPVnJLulsetZpO9SxyNcjm0tRI6nkVEXKI2ph7l/Twa9uPCoGxkU5MQx7cdoOk9yLUlpkqqZrmxpU1MLmI/iqdzX0+YXyKicEVc+QtfQnK60vXtY2uWotU68HJPGstOnwTw5X5WoBocHS6U1XbLrFz1tr6SujTGXUs8c25noSRrFzGvkdg7kDkAAAAAAAAAAAAAAAAAAAAAAAAAAAAAAAAAAAAAAAAAAAAAAAAhW3jvV1L5gvH/D6gmpCtvHerqXzBeP+H1AHk6ewGi/4toPyOm/ctPH89gNF/wAW0H5HTfuWgduAAAAAA4CgcgrvW22zS9nV8dbeaPnmZR1PBIlVUIqfeuig3lY7yOwURrnlnQK/sewWqaqe9Wsjmq+433u7lGx00W89XZXgmVzlOAGuJHI1FVVRERMqqrhE+FV6Csdp+3fTen0VtXXxzVKJwpKRUqJ1XjjeRi4jRVReLlRDOElg2p60c3st0tlt78LuzOdbo9xVXP8Aq8eal793qcjUXGMpkszZtyQrFQObPdZprzUIqPVsiczSq/rVYGuVXoq9T3O6QK3v+3zWWr51oNJW6a3078tWpjTnKndyiOfJWOTmqRML0My5MLh3AlOyrkixLKtfqurkuFVI7nX0kUsisc9VyrqqqcvOTuVenCpnwmpLJZ6WiibBSU8NNCxEa2OGNsbEROjg1D7wPhstppqKCKlo6eGlpoWoyKCCNsUUbU6msYiIh9uDk/KrjivQnh6PKoGI6h6V212vfjeZR861V6d1aagZE35JFRDRRmfk6VP1S1pqe6rnCuqnJ/8AyKzdan5sbvkNMHf7Nrpi16yubPGlQAHRbwAAAAAAABTvtDfdL/xDv24joVO+0N90v/EO/biKm2/Jshl5U3AB5pzwAAAAAAAAAAAAAAAAAAAAAAAAAAAAAAAAAAAAAMZcsfZPe71e46mgpHzQpErVe1FXiu59CmzQBU/Jh2cM07ZYYZIkbWzd3UvVO7cvHdRfgRcFsAAfDfbfHVU01PKxJGSxSMVrkyi7zVTo+M8ndq1ibbL1c7exN1tJVSQtb4Ebj6T1puFQkUUsq8EjjfIq+BGNVyr8iHk/tmvDbjqC7Vsbt9lTWySNcn3yOx0Y+ADbH8H/AH2Wr07NDIqqlDVJTx5zwZzaPRE/ONHmf+Qrpl9v022V7FYtwkSq454puIzP6jQAAAAAAAAAAYAAAAAAAAAAAAAAAAAAAAAAAIXrv7ez8V/ecR4kOu/t7PxX95xHj0uxfJr7L+LlgABbbAAAAAAAAAjO1nvfv3mW6+oVBJiM7We9+/eZbr6hUEMvJPsjflk2Ud79i8y2r1CnJMRnZR3v2LzLavUKckxjHywU5QAGxIAAAAAAoAGeeTi9bPtMu9uVypFXR1e6iphHvc6OsY5PCiIs6G2UMMbWqtLJtC07d3KjIZpaVsz3LusbCsnYtRIq/wA2OdzuP4KG52nlM9NzJaPu5140mXIANSIAAP5zQse1zHta9jkVrmORHNc1UwqOavByKnUpVWtuTvpK6o90tphpZn5VZ6D/AFSTPh3Y/sa/G0tkAY51FyNZ6aXsiw3ySGRiq6Ln0fDLGvUjKimVF6OGeHSdS5213S7k7qa70kadD+auUKonud967tSi46mv8JtsAY7s/LGraNWxX/TssMiJ3T6d0kKvcmUcraeram6n9d3T0lo6R5VWkK/dbJWS2+VyZ3K2F8bG/wBKduYk/OLhvFgoqyN0VVSU9RG9Fa5s0LJEcng7pOgqvVHJk0dXqq/UttI5ehaKSSmanwRsXc+VALFsWt7PXNR1Jc6Koa5OHN1ES5+VSQNcioioqKi9Cp0L8BkvUfIrpN7nLRfKykei5RtVCyoROtGskgdE9qeVcqR+HYjtOsqvW03xtSzqRlwlRzkT73mq1m43oTgjgNqnJieXaHtdsyolbZqmrYid05tA2ubhOlXz29ZGtTyqqH0WnlmXGlduXfTyIreC8zJNTSZ/nNqGORF8mANoAzHZeWfpyVE7KornSqvThkNQ1Pja9qr8hM7LyotFVOEW7Op3L0JVUdXH8r2xOYnwqoF0gh1m2paarFa2mv8AZ5nuTLY23GkSXHD/AGLpEenSnUSqnq4pERY5I3ovQrHtci56Mbq8QP7g4OQAODkADg5AA4AHIBwByDgAcgAAAAAAAAAADgAcg4AHIPy5yJ0qifCuDrbrqGgpGq+qrqOmYnFXVFVBC1E8KukeiIB2h1eqrLDcqGtt1Qr0p6+kqKOdYnI2RIqmF8MixuVFRr9x64VUXj1KQq97dtH0aKsuobY/rxS1HZy9Hgokk4kJu/K50dDnmqiuqlTo5mhlai/AtQrMfIB8n1nOkfwrv+mxf9OaAttG2nhigZlWQxsiYrlRXK1jUaiqqJjOEMrXvls2xuW0dmrZ1X3Lp54YEz1ZYxrlX5SLryoNbXVXNs2nFXwLS0FdXvwvRvbrVbn5ANtnz11bDCm9NLHE3GcyPaxMJ/SVDGcdPtlvCIq87bInp7p8lHRcF6UdFvOmb8bUOaLkn6puS7981Kxm8u89jH1devHpTdldFG34s/ABpPU22bS9uReyr1Qtc1FXmmStllXH4MceXOXyIVFqvlmaep1VtBSV1wXjiTm200S+D7cqSJ+afRpnkbaap0RauouFe/hvI+VsEef5rYGtcieRXKWrpDY3pm0q19FZqNkrEwkz4kmm+DnZcu6k6wM013KL13fF5rT+n+xWPzuypTTVcuV9y5k06MgT4Fa4/izYhtH1K1HX+9SU0Eid3Tz1TlTC8XNfRUu7Ei/EptengYxMMY1ieBrUanyIh/QDMehuRtYaXdfdKqruT0VF5trkpafyoqM7t6fGhe2jNn9kszcWu2UdEuMLJDC1JlT+dO7MjvjcScAcYOQAAAAEZ2p3ZKCyXWrVd3mKGpci+ByxOaxfznISYovlwaiSh0jWRoqJJXyQ0bGquFc17t6VW+FUY3IFM8h61K23XW5PzzlbXMg4p0spIudV7fCiyVj0/wDDNDFccmm09haXtTFTDp4XVjs9P+tPdM1fm3M/UWOen2Sm5iiF/FGlYAAWWwAAAAAAAAU77Q33S/8AEO/biOhU77Q33S/8Q79uIqbb8myGXlTcAHmnPAAAAAAAAAAAAAAAAAAAAAAAAAAAAAAAAAAAAAAAAD5LncIKaNZKiVkMadL5HI1vyqUlyrLtqmnW3t07Gr2yNm7JVG5VFRU3OPV1mSNoVv15UsdJcG3J8Ts5iZzsjOHT9jYigXhyquUdTrTy2ixy87LNmOapZxaxq8FRi/fZ4p8ZVnJs5PFfeamKtuML6a3RPa7EiK18ytwqIidO70cSr9nOoEsFfz9bbOyFTdxT1UW7hUVVzuytN3bCeURZL9zdGjW26r3U3aeTDY/gbIuGfEgF1WmgipoYoIWoyOJiMY1EwiIiY6EPqCKAAAAAAAAAAAAAAAAAAAAAAAAAAAAAAAAAIXrv7ez8V/ecR4kOu/t7PxX95xHj0uxfJr7L+LlgABbbAAAAAAAAAjO1nvfv3mW6+oVBJiM7We9+/eZbr6hUEMvJPsjflk2Ud79i8y2r1CnJMRnZR3v2LzLavUKckxjHywU5QAGxIAAAAAAAoFActqwJPaKSvand0dTzblRMqsc7cYz1NRyZ+M1JsY1F9VtP2e4qu8+pt9M+Vc5+ztYkc6Z8KTMkT4irtr+nluljuVE1N6SSlkfC1OlZok5yNG/zlc3d/rHRfweeqlqbBV2qRy79rrHrE1eqnrMzbqJ1Ik/Pr/4h5/tLHu5NeqlnjS2vVp0HByc9pAAAAAAAAAAAODkAcIh81fbqeoTdnghnb4JomSJ8j0VD6gBBb3sg0vWoqVNitr89KtpmQuX+vBurn4yC37kpaNqlVWUVRRrxwlLVSNai/wBGXez8pegAyxduRXZX57HudfB4Ee2KXHxrjJG6nkX1kDlW3ajWFV63wyxrw8KwPQ2WAMTVPJ62jUSp9T9STSI1cpu3eupm/mOeqL8CofpLFtmoUxHXTTon/eUNWq/HUwqqm1zgDGEGvtsFHwltTarHS6Shgdn9GlZ/YfpOUFtFpvurSySKnTzVBXJ+7e82ccZAxo/laalg+6dJvZ4d5K2H9unXBzTctxzVVs+n1a5OlG1nFPifEhsWWnjd7tjHf0mtd/ah801mpHph9LTO+GGNf7oGWqbltWzhzllrk8PNzU7v2nodhDy2LAuN61XdvhXFGqJ/9fP6jQdToizy/bLXQP8A6VLCv906yo2U6ak93YrW5fCtHD/hAqCn5ZWmHe6guUf9KBjv2XqffFyvtIL0yVzfhpJF/ZLBm2JaTf02C2fFSRJ/Yh8ztgmj1/7At/xQNT+wCIM5W+jF6aurT/8AgVK/2NP2nK00X/Lar0fVf4CUO5P2jl/7BofiYqf2KfheT1o3xFR/I/8AxARteVnor+XVXo+r/wABwvK00X/Latf/APX1X+Akn1vGjfEVJ/v/AOI/TeT1o1P+wqP5Hr/aoESk5XOjU6Kisd//AAp0/tafJPywtJt9z9UH/BTOT9pUJ4mwHR6dFgoPjiz/AGqf1j2E6Qb0aftq/DTsX+1AKtquWjptvuaG6y/0Y6dv7yVDr5+W1ZP9naLov9NaRv8AZMpd0GxrSrPc2C1/okK/3TsabZtp+P7XZbYzHgo4U/ugZuq+W5SJnmrFUO8HOVMTP2UcdavLRuEy4o9NJInQmKqaRfzY6dePxmt6XS1si+12+jZjo3aeJP7p9zLdTp0QQt+CKNMfIgGPX8qDWcyf6vpGTj0L2LcJU+VIkQ/KbZ9qdT9z6dijRejNvqEcnxy1CJ+o2Y1qImERE+BMH6AxU+9bZ61UWOKSjaue5ZS21jflmbI5PlP5T7NtrtwTE95ngR3usXRaTCdfc0jG/IhtkYAxbDyVdXViItw1SqKvFzZKivql8vFZMKp2dt5ElPlFqr5O9VXLuap2plevi9cmwABmy0cjbTEeOyKi41OOrnmQov5jV4E4sXJw0bSI3Flhnc3Co+qkmmdw8LVejF+QtsARy0aFstHjsW1W6BU6Fio6dqp/W3M5+MkDGIiIiIjUToROCJ8CJ0H7AHGDkAAAAAAAAAAAAAAAGOeX5XOuF007p+J3dTS869E4qx1RI2njerfBuukX+qpsVy8DDNvqHam2nXCuXMlJaHSRxL961KRFp4mZ8szp3p8BsxU37xXrLNY1nRoy20jIIYoY2o2OGOOJjU6GtY1GtankREQ/uAerrGkOkAAyAAAAAAAACnfaG+6X/iHftxHQqd9ob7pf+Id+3EVNt+TZDLypuADzTngAAAAAAAAAAAAAAAAAAAAAAAAAAAAAAAAAAAAAAAOMBTkAVVtt2K2nUVJNv00cVbuOdHUxtRsqvRFVrXO6VTKJ8p5s3621dluc1M9zoqugnViublFbIzC5T5f1nr2ecfLmtscGqJXMREWoi55+E6XK9yZ+HCIBqzkfbTn6hsyMqn71bRKkMrnLl0uGovOfrRC8DD/8HHK7s+5Myu52Orsfe72/Gny4NwAAAAAAAAAAAAAAAAAAAAAAAAAAAAAAAAAQvXf29n4r+84jxIdd/b2fiv7ziPHpdi+TX2X8XLAAC22AAAAAAAABGdrPe/fvMt19QqCTEZ2s979+8y3X1CoIZeSfZG/LJso737F5ltXqFOSYjOyjvfsXmW1eoU5JjGPlgpygANiQAAAAAAAAnSZy2C13+jG0e4Wp/wBjpLs6RkWUVG4qMVlJudWEVyx5/mOTqNG4M48sG2y0VVZdSUrfstHMynlciKi9w/n6ffcnQzPPMz/3qHO7Sxb2PXo0566xq3CinJ0OgdRQ3a2UVxp3b0VZTRTNXowr2IrmqnSio7PA744CkAAAAAAAAAAAAAAAAAAAAAAAAAAAAAAAAAAAAAAAAAAAAAAAAAAAAAAAAAAAAAAAAAAAAAAAAAAAAcAQzbbq9tisF0uiq3fpqWTmEd0PqZE5qmj+OV7PiyZj5GGn3xW2ruk2VmuNQ5Ee5O7fHEq5cqrxVFerlz5VO5/hCdWPkZaNMUuXTVs6VlS1vF24x3MUcW6id0j5XzPXox2OzpyWVoayNtttoqBqI1KWnjjVE/DRqLJ/vK7idHs3FvZN7o37PXW2ruQAd6FwABkAAAAAAAAFO+0N90v/ABDv24joVO+0N90v/EO/biKm2/Jshl5U3AB5pzwAAAAAAAAAAAAAAAAAAAAAAAAAAAAAAAAAAAAAMebf+UreLDqKvtdNT08kFM6FGOe56OckkMci72E8L1Nhnnpyx9nd5k1PcrjFQVE1HULC5k8THPYm5TxMcjlROC5avyAbf2U6wivlqpbhErV56NvOI1co2REw9PlySzJ5o7BNuFz0nItO+J09E5yc5TybzVj/AJzEROniq44ZNN0vLH0wsaLLBc2y9bW0rFbn+lz2QNIyPRqK5VwiIqqq9CIiZVVPMvleamjuWqK5Yn85HSyPp2PRe5c1q7yK1etvFS1dsPKzqbjTvobFSSQpOm4tS9rkmRHcFa2NMouej4yD7CuTrd79VMqbjHLR0KPbJJLMipLMmUXuWubhyLjw9YF3/wAHvo+Smt1Tc5mq3st+Ic/fQq1i7yeTLTVR1ml7JT26kho6ViRwQMRkbU4IiIdmAAAAAAAAAAAAAAAAAAAAAAAAAAAAAAAABC9d/b2fiv7ziPEh139vZ+K/vOI8el2L5NfZfxcsAALbYAAAAAAAAEZ2s979+8y3X1CoJMRnaz3v37zLdfUKghl5J9kb8smyjvfsXmW1eoU5JiM7KO9+xeZbV6hTkmMY+WCnKAA2JAAAAAAAABGNqem23ez19A5MrNA5Y/JKzu4nJ5Ue1q/IScEb1i0TE+pMaxoq3+D+1q6W312nqpVbVWqZ0kTX9PY8r1R7OPXHM16L4Ecw1KYP1hWP0Tr2ivjGqltuTsVaNRUZzE6tirE4ffs7mZG8MrEnUqm7YJWva17FRzXNa5rk4o5rkRUci9aKiop5TLjmlprPo51o0nR/QAEEQAAAAAAAAAAAAAAAAAAAAAAAAAAAAAAAAAAAAAAAAAAAAAAAAAAAAAAAAAAAAAAAAAAAAAAAA/nPM1jXPeqNaxquc5ehrWoquVfIiIfspPllbQfqFpuoZC7drLl/qVPxwrWyIvPSJ5Wxo7qx1AZ+0dWv1ftDrr05rlobUqugVfctbAvMUTOn3TnJJJw/Acppoqjkt6NW0WGF0rN2quLuzJ0cio5rXtRKeJ2eKYjwqpwwr3FsHo9hw93jjXznivYa6VcAAutoAAAAAAAAAACnfaG+6X/iHftxHQqd9ob7pf8AiHftxFTbfk2Qy8qbgA8054AAAAAAAAAAAAAAAAAAAAAAAAAAAAAAAAAAAAAH854GSIrZGte1elrkRzV+FF4H9ABFL5s5stamJ7dSrxzlsMbFz8LW5IpLyetKOcrltqZcqqv2RyJlfAnUWsAIZp7ZbYaDdWnt1OitTDVfGyRUx5XITCKJrERrURrU4I1qIiIngRE6D9gAAAAAAAAAAAAAAAAAAAAAAAAAAAAAAAAAAAIXrv7ez8V/ecR4kOu/t7PxX95xHj0uxfJr7L+LlgABbbAAAAAAAAAjO1nvfv3mW6+oVBJiM7We9+/eZbr6hUEMvJPsjflk2Ud79i8y2r1CnJMRnZR3v2LzLavUKckxjHywU5QAGxIAAAAAAAAAAFZ8pPRK3qxTsiajqqjR1ZT+F3NNzLGnldGi48Ko3wki5EO0Rbzp2OjqJN+ts+7SPy7L30qJilkdniuGIjM/zE8JKv8APkMwMqF2fa6jq2K5tlu7l5xFVNyOGd6c8xVTCYhmdvN8DFTpVFU43aeHyyR7Sq7RT/c3mD+VNO2RjZI3I+N7UexycUc1yIrXIvWioqH9TkKwAAAAAAAAAAAAAAAAAAAAAAAAAAAAAAAAAAAAAAAAAAAAAAAAAAAAAAAAAAAAAAAAAAAAAAADhymGNptxfrnXjKGJ3OWiyOcxytXMbkgfmpeiomHLJM1rE8kaqnSaC5Xm0xNOaen5iRWXK471FQbq4exXtXn6pPAkUWcL+G+LwlW8lHQaWqzpWTNclZct2Z+9jMcH+wYiIiKmU7pcqvT1FrY8Pe5I6RxlsxV3rLjjajURrUwjURETwIiYRD9HAPSwvgAMgAAAAAAAAAAB3ejJWsqHK9zWosLky5Uamd+Pw+RFOkCmrNi7yk18tWLV3o0WX2dB79F84z6Tns6D36L5xn0lZg5vhUfVP4V/hvuszs6D36L5xn0js6D36L5xn0lZgeFR9U/g+G+6zOzoPfovnGfSOzoPfovnGfSVmB4VH1T+D4b7rM7Og9+i+cZ9I7Og9+i+cZ9JWYHhUfVP4Phvuszs6D36L5xn0js6D36L5xn0lZgeFR9U/g+G+6zOzoPfovnGfSOzoPfovnGfSVmB4VH1T+D4b7rM7Og9+i+cZ9I7Og9+i+cZ9JWYHhUfVP4Phvuszs6D36L5xn0js6D36L5xn0lZgeFR9U/g+G+6zOzoPfovnGfSOzoPfovnGfSVmB4VH1T+D4b7rM7Og9+i+cZ9I7Og9+i+cZ9JWYHhUfVP4Phvuszs6D36L5xn0js6D36L5xn0lZgeFR9U/g+G+6zOzoPfovnGfSOzoPfovnGfSVmB4VH1T+D4b7rM7Og9+i+cZ9I7Og9+i+cZ9JWYHhUfVP4Phvuszs6D36L5xn0js6D36L5xn0lZgeFR9U/g+G+6zOzoPfovnGfSOzoPfovnGfSVmB4VH1T+D4b7rM7Og9+i+cZ9I7Og9+i+cZ9JWYHhUfVP4Phvuszs6D36L5xn0js6D36L5xn0lZgeFR9U/g+G+6zOzoPfovnGfSOzoPfovnGfSVmB4VH1T+D4b7rM7Og9+i+cZ9I7Og9+i+cZ9JWYHhUfVP4Phvuszs6D36L5xn0js6D36L5xn0lZgeFR9U/g+G+6zOzoPfovnGfSOzoPfovnGfSVmB4VH1T+D4b7rM7Og9+i+cZ9I7Og9+i+cZ9JWYHhUfVP4Phvuszs6D36L5xn0js6D36L5xn0lZgeFR9U/g+G+6zOzoPfovnGfSOzoPfovnGfSVmB4VH1T+D4b7rM7Og9+i+cZ9I7Og9+i+cZ9JWYHhUfVP4Phvuszs6D36L5xn0js6D36L5xn0lZgeFR9U/g+G+6zOzoPfovnGfSOzoPfovnGfSVmB4VH1T+D4b7rM7Og9+i+cZ9I7Og9+i+cZ9JWYHhUfVP4Phvuszs6D36L5xn0js6D36L5xn0lZgeFR9U/g+G+6zOzoPfovnGfSOzoPfovnGfSVmB4VH1T+D4b7rM7Og9+i+cZ9I7Og9+i+cZ9JWYHhUfVP4Phvu73WszXzMVjmuRIsZaqKnunLjh/nidEcnB0sOLu6RXz0WKxuxEAANrIAAAAAAAARnaz3v37zLdfUKgkxGdrPe/fvMt19QqCGXkn2RvyybKO9+xeZbV6hTkmIzso737F5ltXqFOSYxj5YKcoADYkAAAAAAAAAAAV7t+0I2/WeanY1Fq4M1FI7hvJKxq5YnXh7VVMeUsIEMlIvWaz6sTWJ4SgPIc2nOuVtksNa5UuVmbuIj1XnJaNrubaq54q+J+I3fCxfvjSRg3bdbKrSGo6HVtqRzYpahFqom5bG564Sop5MIqc1PFvJ0cFXKcURTa2h9T0t5t9LcqKTnKariZKzo3mq5O6jen3sjXZaqeFDy2XFOO01lz7V3Z0d4ADWiAAAAAAAAAAAAAAAAAAAAAAAAAAAAAAAAAAAAAAAAAAAAAAAAAAAAAAAAAAAAAAAAAAAfzqJWsa571RrGNc9zl6GtamXOVepERFP2qmZeW/tTfRUcenLa9zrndUa2ZIl+yQ0j3bqMTHFJJXdynk3l6hAqe918m0TXCvRFWx2dcJxXcWnieuPJzk8zfzWqvQhp5iIiIiIiIiYRETCIicEREToREK/2C7P49P2mKBURayoxUVsnhlc1N2NPAyNuG48ir1qWCej2HZ+6px854r2Km7GoAC62gAAAAAAAAAAAAAAAAAAAAAAAAAAAAAAAAAAAAAAAAAAAAAAAAAAAAAAAAAAAAAAAAAAAAAAAAAAAAAAAAAAAAAAAAAAAAAAAAAAAAAAAAAAAAAAABGdrPe/fvMt19QqCTEZ2s979+8y3X1CoIZeSfZG/LJso737F5ltXqFOSYjOyjvfsXmW1eoU5JjGPlgpygANiQAAAAAAAAAAAAA6jWWnae7UFVb6pqOhqY1Y7girG7pjkbnoe1yNci+Qo/kua5qNI32o0heZEbSTz/AOpzP7mKOeTjE9jl4JDM3d+B3DpNDlScpXZn9XKFKulbi6UCOfA9qq100SKjnwqqdK5aitXqVOGMrnnbfs3eV3o84aM1NY1hq1F6D9GfOR3tlW+0S2i5SNZe7Yzm3td3ElZTR4Y2o3VXjK1cNkx14XCbyImgzgKYAAAAAAAAAAAAAAAAAAAAAAAAAAAAAAAAAAAAAAAAAAAAAAAAAAAAAAAAAAAAAAAAAfxrKhkMb5ZHtjjja573uXDWNamXOcq9CIiARfa9ruj05aaq61jk3YWYhhym/U1L+ENPGi9LnO6V6mo5V4IZE5O2navUN2qtY3pedkkmetI1ydzzidzljVTCRRswxvwdanzbS9QVW0nU8duo5FZp+1vcqypvbjmZxLVLxw6aTG5H4E49GTSlntsFHTw0tNG2Knp42RRRtTDWsYiInwrwyqrxVVVV6TpbBs2/O/byhvw49eMvqUAHeXAAAAAAAAAAAAAAAAAAAAAAAAAAAAAAAAAAAAAAAAAAAAAAAAAAAAAAAAAAAAAAAAAAAAAAAAAAAAAAAAAAAAAAAAAAAAAAAAAAAAAAAAAAAAAAAAAAACM7We9+/eZbr6hUEmIztZ73795luvqFQQy8k+yN+WTZR3v2LzLavUKckxGdlHe/YvMtq9QpyTGMfLBTlAAbEgAAAAAAAAAAAAAAAGauUFo6s0/cYNY2H7C+CZj6xkacI5HLu885nQ6nkRVjen89F6+GrNh20yi1Ta4rhTOayVMR1lLvZfS1CJ3THIvHcX3TV60U6Orpo5Y5IpWNkilY6OWN7UcySN7Va9j2rwc1WqqKi9KKZeutPcdm1+bd7a101jrHtjnp0VVTmlXLqd+eiRq5Vj1XyHD2/ZN2d+vlPn9lTNj04w3zk5I/oHVtFe7fT3K3ypNTVDN5qp7pjvvopG9LJWrwVq9B35y1dyAAAAAAAAAAAAAAAAAAAAAAAAAAAAAAAAAAAAAAAAAAAAAAAAAAAAAAAAAAAB+XAcuUyDyu9rdRcqtujNPP52aaVsNxqInLjfVV3qJr06Eb0yKmcY3enKJM+V1tz+ocC2a0Sb98rGozeiTfdQxS9zvtRP8A3l2VRidSrnqwRTk27J0slOtdXNa+7VbcvV3dOpYn91zSPXikrvvlT4Cxs2zzmtp6J48e/KXbHNA0+nrbHSRox9Q9Ekq50TCzTY48V4oxOhE8CE1QA9LSkUiKx6L8RpGkAAJsgAAAAAAAAAAAAAAAAAAAAAAAAAAAAAAAAAAAAAAAAAAAAAAAAAAAAAAAAAAAAAAAAAAAAAAAAAAAAAAAAAAAAAAAAAAAAAAAAAAAAAAAAAAAAAAAAAAEZ2s979+8y3X1CoJMRnaz3v37zLdfUKghl5J9kb8smyjvfsXmW1eoU5JiM7KO9+xeZbV6hTkmMY+WCnKAA2JAAAAAAAAAAAAAAAAB12prJTXGkmo6uNssE7FY9jkzjKe6b4HIvFFQ7E5I2iJjSSWWdMX26bL76sUnPVmnLg/inHdVqKmZIuplZEjuKcN5F+DG5dLX6kudJBXUU7KilqWJJFKxUVrmr1L+C5F4KnSiopUuttLUd5opaCuiSSCVOngj43oi7k0TvvJG54L8KLkzvojVF32YXZaKtSSt09WybyPaiqjUVft0KdDKhqe6j6HImUPP7Zsk451ry/2UsuLd4x5N7A6nSmoKO50kNdQzsqKaobvxyRqiovhavgcmeKKdsUWkAAAAAAAAAAAAAAAAAAAAAAAAAAAAAAAAAAAAAAAAAAAAAAAAAAAAAAcBygFKR5UO3Sm0tTdiU27UXuqjzTU6LvJTMcqtSqqETi1uUXcb0vVOHBFVP3ymdu1LpWldBTrHUXmdi9jU690yDKcJ6prVRdxFwqMyiux1dJRewXZRVVtS7U+pXSVFbVPWoghqcrIr3L3NTUNX3KoiJuR4RGojeCYRE3YMFsttISrWbTpD7uT3stqFmXUt/V890qXOmgiqEVzoec4pPIjk4Sqi8E+9RfCX8AejwYa4q7sL9KxWNIAAb0gAAAAAAAAAAAAAAAAAAAAAAAAAAAAAAAAAAAAAAAAAAAAAAAAAAAAAAAAAAAAAAAAAAAAAAAAAAAAAAAAAAAAAAAAAAAAAAAAAAAAAAAAAAAAAAAAAAAAAIztZ73795luvqFQSYjO1nvfv3mW6+oVBDLyT7I35ZNlHe/YvMtq9QpyTEZ2Ud79i8y2r1CnJMYx8sFOUABsSAAAAAAAAAAAAAAAAAAAU6bWemaO70ktFXRNlglT4HMd97JG7pY9F6FQ7kEbVi0aSebLNlvV92XXXCo+v07Wy53fvHoirnd6qWuY1ejofjrTONrbO9a26/UMVwtlQ2enkTCp0SRPT3UU0a8Y5EXgqL8RAb9aKavp5aSshjnp5UVr45Go5qp1OTPuXovQqcUwZovOnL9s8r1vFhkkqrQ56dk0r95zEjVftdSxvg+9mTi1cZymUXhbXsM0/VTjH9lPJh04x5N8HJWuwzbFatVUqSUkiRVsbEWqoJFRJ4XdatT/axeB7fj4opZKKc5ocg4Q5AAAAAAAAAAAAAAAAAAAAAAAAAAAAAAAAAAAAAAAAAAAAAAAB/OWVrGuc5yNa1Fc5zlw1rWplVVV4IiIB+nLwM+cprlE02n0farVu1l9ejWua1FkhoOdTuVmVvu6hUVFbEnHi1XYyiLENv/KRlnmdp/SG9VVsyup5a+FFdzbl4ObSY4K9Ez9k6G8fBw+XYTsSitOLldVbWXeVVkXfVZWUz3rvPVHO+21Cu4q9etSxs+zWyzw8uqdKTaXU7E9j9RLU/wCkOpldU3Kd6VENPM5HrG5VRzZZ0XhznQqM6G/CaARBnwg9DgwVxV0hepWKwAA3aJAAMgAAAAAAAAAAAAAAAAAAAAAAAAAAAAAAAAAAAAAAAAAAAAAAAAAAAAAAAAAAAAAAAAAAAAAAAAAAAAAAAAAAAAAAAAAAAAAAAAAAAAAAAAAAAAAAAAAAAAAEZ2s979+8y3X1CoJMRnaz3v37zLdfUKghl5J9kb8smyjvfsXmW1eoU5JiM7KO9+xeZbV6hTkmMY+WCnKAA2JAAAAAAAAAAAAAAAAAAAAAAfiaJr2uY9rXtem65rkRWuavBUVF4Kh+wYmNRnTajsTrLfVJfdISvpaqFXSyUUb1Y7KZc5aNehyKqcYXcF6ujBYuwHlQ01e+O06ka22XVFSJKiROZpKqROG7Jv47FqFx0Ow1VwiLlUaWMVrtf2O2zULFkc1KWvRq83VxNRFcqJwSZvRK3o8pytq7Pif1U8+itkwesNOMcioioqKiplFRcoqL1nJhbRO1PU+z6eK236CS42XfVkEyOWR0UfHCUtQ7pREblIXrwTOOCYNe7NNolp1DSpVWuqjnTCc5FlGzwquO5liXumrx+A41qzWdJVpjRLQcZBhhyAAAAAAAAAAAAAAAAAAAAAAAAAAAAAAAAAAAAAAAAcKpwrk4+Qz/ALd+U1arGklFbd26XVF5tI4Xb1NBJ0fZpW53lTPuWZVVVOrIFw691pbLFRyV10qo6WCNF4uXMkjkThHDEndTSL0I1qKYy15tS1JtDq3Wuwwy22yo7E0jnK10jEwiyV1QzgmUVMQMVc8E7o/Nh2Z3/WNW28atqZoqdUzBRpmNyMVeDI4c4po/Cq90vDKmi9OWOkt1NHSUUEdPBGmGsjbjPVvOXpe7yqdHZtgtfjfhH9Zb8eGbeaJbIdlVu05BiBqT1kjUSorZG/ZHrji2PP2qJF6Gp8eSfHJwdymOtI0jhC3WIiNIAATZAAAAAAAAAAAAAAAAAAAAAAAAAAAAAAAAAAAAAAAAAAAAAAAAAAAAAAAAAAAAAAAAAAAAAAAAAAAAAAAAAAAAAAAAAAAAAAAAAAAAAAAAAAAAAAAAAAAAAAAAAAAIztZ73795luvqFQSYjO1nvfv3mW6+oVBDLyT7I35ZNlHe/YvMtq9QpyTEZ2Ud79i8y2r1CnJMYx8sFOUABsSAAAAAAAAAAAAAAAAAAAAAAAAAAB8V5tVPWwvp6uCKogkRUfFKxHtVF6copnrWWwm5WipdddH108EzF3+wklVkzcLndgmVd2Zn8yRM9WV6DSQK+fZqZY/VH7oWxxbzU9sn5WDopmWzWNI6gqWYYtxjhexiu9zvVdI1u9DnHu48tznuWp0alsF6pK+COpo6iGqp5URzJoJGyRuRfA5qqhSevtA2q+RLHcKVkr0aqMnam5PHno3ZU7r4lKKqtmmq9ITS12lbhNUUqKsslEior3taiZ5ymX7HUO3W4y3D8JhM5ONn2C9ONf1Qq3wzX7t4IpyZX2Y8rujkc2j1LRy2ysYrY5Z2MesG/wDhSROTnIPDhc4RU6TSunr/AEVxhbUUNVBVwuRFSSCRsjcL0Z3Vy1fIuCh9ml2YODkAAAAAAAAAAAAAAAAAAAAAAAAAAAABwByDhVK62o7adPadYq11dG6fC7tHTKk9S9fArGe4TKplXYxkwLEVSvNrW2awaZictwq0dU7qrFQU2JqyZcLhEjRcRNXHu5Fa3y54GadTbfdW6tmdRaVoZLfSLvNfVqmZccOL6lyc3BhFXuW7zuKYxg+zZ5ydKaKVa2/1D7rWvdvuY971iV69L5XvVXzu/pL4FLOHZr5fKOHVOtJs6HUu0rWmv5FpbTAtnszl3ZHskc1HMyqb1TW7qPl4feRNRPh6Sw9kmw612LdqJMXG49PZc7E3InL09jQrlI/6aqruK8eOC0KKkigjZDDGyKKNEayONqMY1E4YRreCH9js7PsNMfGeMrVMMR5gAL2jcAAyAAAAAAAAAAAAAAAAAAAAAAAAAAAAAAAAAAAAAAAAAAAAAAAAAAAAAAAAAAAAAAAAAAAAAAAAAAAAAAAAAAAAAAAAAAAAAAAAAAAAAAAAAAAAAAAAAAAAAAAAAAAAAARnaz3v37zLdfUKgkxGdrPe/fvMt19QqCGXkn2RvyybKO9+xeZbV6hTkmIzso737F5ltXqFOSYxj5YKcoADYkAAAAAAAAAAAAAAAAAAAAAAAAAAAAABycACKa92d2e9x7lwo2SOT3FRH9iqY+j3E7O6xwTuVyi44opSNz2FX+wz9m6SvNQisy7mXS9j1CdK7uW/YalqoiZRzW58CmmQVc2yY8nnGktdsVbKE03yp9RWWZtLq6yvlYiojqqmj7Eqt3HB/Nu/1eoVVToasXBfl0Ds6276Yvqtjo7nFHUPVEbSVf8AqtSq4zutZLhJFT+Yrk4HXXW2U1XGsVVBFURrnuJWNenHpxvJw+IqDXHJvsVdmSkSW2zO44gVHQKufen5RvBF6MdJzMvZlo5J1V7YJjya7ZIjkyioqeFFRU/UfrJhWLSG0PTTkfZrs+40zFylOsu+qtT711PVLhGYx7h6fASC1cra9WxzYdR6fe1ydyskTZKV0ip7pWMmTcVOjocvSUL4b05omGm1ZhssFHaN5U2krgiJLWPt8q4yyticxu8v3rZWIqO+HgWrp7VtruCItDcKOqzxRIKiJ7vzEdvJ8hrYd4DjIA5AAAAAAAAAAAHAUDkH85pWsar3uaxrUyrnORrUTwq5eCIQjU22DTNtRey71QMVOlrJmzPz4EbDvcQJ0MmYdacsuxU6qy20lXcHIqoj3tSniymUz3a7zm+VCBXPbLtF1EistFrdaqd/+2SLcejfwkqKvCK3dX71rvISrS1p0iNSI1bKvt8o6GJ89bVU9LDG1XPlnlZExrU61c9UwhQu0Tldadt6SRW1s95q0yjGwIsNJvJ+FVSJlzfLGx+cdXSVJRcnq7XORKjUt9mqHqu8sUUkk+71dzJP3Lcpjg1qY4ls6L2S2G0o3sagidK3pnqPs8qr4Vc/OPgLmLs/Lbz4e7bXDMqkuWtdpGsmqynZ9RbbKrkzAj6JjmKuN2Speqzy4TpRuEXwHfaE5NNsp3NqLxUTXap7lz41V0VJv9Pdd1zs6dXdORF628cF746vJj4gdLD2fjpxnjP3WK4Ijz4vnt9DBTxtip4YoImIiMjhjbGxqJ0I1rEwiH0HJwX4iI8m6OAADIAAAAAAAAAAAAAAAAAAAAAAAAAAAAAAAAAAAAAAAAAAAAAAAAAAAAAAAAAAAAAAAAAAAAAAAAAAAAAAAAAAAAAAAAAAAAAAAAAAAAAAAAAAAAAAAAAAAAAAAAAAAAAAAAAAARnaz3v37zLdfUKgkxGdrPe/fvMt19QqCGXkn2RvyybKO9+xeZbV6hTkmIzso737F5ltXqFOSYxj5YKcoADYkAAAAAAAAAAAAAAAAAAAAAAAAAAAAAAAAAAAAAB/GtpYpmOjmijmjeio+OVjZGPReCo5j0VHJ8J/YKYmInzNNVa6j2FaXrcudbI6Zy57qikfS4Vevmo15pPzcFdXzkr07XK+13iqp3fesqo2yYXp4z0+4uP6ho8Fa+yYredfxwa5xVlmul0JtJtKbtt1HNPGzCMjdXSPjRPA2KtRzGp5MH1x7TtrFrVW1FHHcWs6ZJaCCVjv/EonRK40SCtbszHPlMwhOzxPkoW3crvUdOmLlpRkrk4OWndW0Tc+RJop8J8aneUvLVomonZen7jAvWkc8MifEsrI8/qLclja/wB21rv6TUd/afFPZaOT3dJTP/pQRr/a00z2V0t/RCdn+6CUnLS065PslBdo/JzdM79mc7GLlj6UXpjubfItKxf2ZVO8qNHWmTg+20bv/Aj/AOSHWzbMNOv93Zre74YGmvwu/WGPh56v4/Xh6Sx0XLP5IntD5Z+WXpdPc090f8FPEn7Ux9ibKdNdP1Dt36O0+un2eWKP3FpoW48EDB4XfrB8PPVFKnlr2JOEdqusngVexGIv/wBZV/UdVW8s+R3Cj0rVTZ6HS1is+DuIqR+flQtGHTFtZ7mgpEx4KeL/AAn3RW+nZ7iCFv8ARiYn9iE47Ln1t/Q+H+6hJuUrr64OVls07TQIvRvUVbPKnwPmmZGv5h/BbttdufF1WtvY7grGsoaNWovX3MayJ8KONFjBtr2XWPO2qfw8Mx1GwXVF0ej73qWWXjxSSoq617UX8BJHoxE8iKiEo07yYLBAiLWTV1e/77elbTQqvhRkKc4i/DIpegLFNgw19NffinGGsIvpXZ5Y7WqOoLXRwSInCZIkkqET8om3pE+JxKAC1WlYjhGjZERHk5U4AJsmAAAAAAAAAAAAAAAAAAAAAAAAAAAAAAAAAAAAAAAAAAAAAAAAAAAAAAAAAAAAAAAAAAAAAAAAAAAAAAAAAAAAAAAAAAAAAAAAAAAAAAAAAAAAAAAAAAAAAAAAAAAAAAAAAAAAAAAAAAAIztZ73795luvqFQSYjO1nvfv3mW6+oVBDLyT7I35Zc7KO9+xeZbV6hTklK42Y66scVjssUt6tEUsVotscsUlyomSRyMooGvjkY6VHMe1yKioqZRUUkXbBsHj2zelaD2xrx5K7scWKXrokoIz2wtP+PrN6VoPbDthaf8e2b0rQe2NneV6s79UmBGe2Fp/x9ZvStB7YdsLT/j2zelaD2w7yvU36pMCM9sLT/j6zelaD2w7YWn/Htm9K0Hth3lepv1SYEZ7YWn/H1m9K0Hth2wtP+PbN6VoPbDvK9TfqkwIz2wtP+PrN6VoPbDthaf8AHtm9K0Hth3lepv1SYEZ7YWn/AB9ZvStB7YdsLT/j2zelaD2w7yvU36pMCM9sLT/j2zelaD2w7YWn/H1m9K0Hth3lepv1SYEZ7YWn/Htm9K0Hth2wtP8Aj6zelaD2w7yvU36pMCM9sLT/AI9s3pWg9sO2Fp/x9ZvStB7Yd5Xqb9UmBGe2Fp/x7ZvStB7YdsLT/j2zelaD2w7yvU36pMCM9sLT/j2zelaD2w7YWn/H1m9K0Hth3lepv1SYEZ7YWn/Htm9K0Hth2wtP+PbN6VoPbDvK9TfqkwIz2wtP+PbN6VoPbDthaf8AHtm9K0Hth3lepv1SYEZ7YWn/AB9ZvStB7YdsLT/j2zelaD2w7yvU36pMCM9sLT/j6zelaD2w7YWn/Htm9K0Hth3lepv1SYEZ7YWn/H1m9K0Hth2wtP8Aj2zelaD2w7yvU36pMCM9sLT/AI+s3pWg9sO2Fp/x7ZvStB7Yd5Xqb9UmBGe2Fp/x9ZvStB7YdsLT/j2zelaD2w7yvVnfqkwIz2wtP+PrN6VoPbDthaf8e2b0rQe2Md5Xqxv1SYEZ7YWn/Htm9K0Hth2wtP8Aj6zelaD2w7yvU36pMCM9sLT/AI9s3pWg9sO2Fp/x9ZvStB7Yz3lepv1SYEZ7YWn/AB7ZvStB7YdsLT/j6zelaD2w7yvU36pMCM9sLT/j2zelaD2w7YWn/H1m9K0Hth3lerO/VJgRnthaf8e2b0rQe2HbC0/4+s3pWg9sO8r1Y36pMCM9sLT/AI9s3pWg9sO2Fp/x9ZvStB7Yd5Xqb9UmBGe2Fp/x7ZvStB7YdsLT/j2zelaD2w7yvU36pMCM9sLT/j2zelaD2w7YWn/Htm9K0Hth3lepv1SYEZ7YWn/H1m9K0Hth2wtP+PbN6VoPbDvK9TfqkwIz2wtP+PbN6VoPbDthaf8AHtm9K0Hth3lepv1SYEZ7YWn/AB9ZvStB7YdsLT/j2zelaD2w7yvU36pMCM9sLT/j6zelaD2w7YWn/Htm9K0Hth3lepv1SYEZ7YWn/H1m9K0Hth2wtP8Aj2zelaD2w7yvU36pMCM9sLT/AI9s3pWg9sO2Fp/x9ZvStB7Yd5Xqb9UmBGe2Fp/x7ZvStB7YdsLT/j6zelaD2w7yvU36pMCM9sLT/j2zelaD2w7YWn/H1m9K0Hth3lepv1SYEZ7YWn/Htm9K0Hth2wtP+PrN6VoPbDvK9TfqkwIz2wtP+PbN6VoPbDthaf8AH1m9K0Hth3lepv1SYEZ7YWn/AB7ZvStB7YdsLT/j6zelaD2w7yvU36pMCM9sLT/j2zelaD2w7YWn/H1m9K0Hth3lepv1SYEZ7YWn/Htm9K0Hth2wtP8Aj2zelaD2w7yvU36pMCM9sLT/AI+s3pWg9sO2Fp/x7ZvStB7Yd5Xqb9UmBGe2Fp/x7ZvStB7YdsLT/j2zelaD2w7yvU36pMCM9sLT/j6zelaD2w7YWn/Htm9K0Hth3lepv1SYEZ7YWn/Htm9K0Hth2wtP+PbN6VoPbDvK9TfqkwIz2wtP+PrN6VoPbDthaf8AHtm9K0Hth3lepv1SYEZ7YWn/AB7ZvStB7YdsLT/j6zelaD2w7yvU36pMCM9sLT/j2zelaD2w7YWn/H1m9K0Hth3lepv1SYEZ7YWn/Htm9K0Hth2wtP8Aj6zelaD2w7yvU36pMCM9sLT/AI9s3pWg9sO2Fp/x9ZvStB7Yd5Xqb9UmBGe2Fp/x7ZvStB7YdsLT/j6zelaD2w7yvU36pMCM9sLT/j2zelaD2w7YWn/H1m9K0Hth3lepv1SYEZ7YWn/Htm9K0Hth2wtP+PrN6VoPbDvK9Wd+qTAjPbC0/wCPbN6VoPbDthaf8e2b0rQe2HeV6sb9UmBGe2Fp/wAfWb0rQe2HbC0/49s3pWg9sO8r1N+qTAjPbC0/4+s3pWg9sO2Fp/x7ZvStB7Yd5Xqb9UmBGe2Fp/x9ZvStB7YdsLT/AI9s3pWg9sO8r1N+qTAjPbC0/wCPrN6VoPbDthaf8e2b0rQe2HeV6m/VJgRnthaf8fWb0rQe2HbC0/49s3pWg9sO8r1N+qTAjPbC0/49s3pWg9sO2Fp/x7ZvStB7Yd5Xqb9UmBGe2Fp/x7ZvStB7YdsLT/j2zelaD2w7yvU36pMCM9sLT/j2zelaD2w7YWn/AB9ZvStB7Yd5Xqb9UmBGe2Fp/wAe2b0rQe2HbC0/4+s3pWg9sO8r1N+qTAjPbC0/49s3pWg9sO2Fp/x9ZvStB7Yd5Xqb9UmBGe2Fp/x7ZvStB7YdsLT/AI+s3pWg9sO8r1N+qTAjPbC0/wCPbN6VoPbDthaf8fWb0rQe2HeV6m/VJgRnthaf8e2b0rQe2HbC0/49s3pWg9sO8r1N+qTAjPbC0/4+s3pWg9sO2Fp/x7ZvStB7Yd5Xqzv1SYEZ7YWn/H1m9K0Hth2wtP8Aj2zelaD2w7yvVjfqkwIz2wtP+PrN6VoPbDthaf8AHtm9K0Hth3lepv1SYEZ7YWn/AB9ZvStB7YdsLT/j2zelaD2w7yvU36pMCM9sLT/j6zelaD2w7YWn/Htm9K0Hth3lepv1SYEZ7YWn/H1m9K0Hth2wtP8Aj2zelaD2w7yvU36pMCM9sLT/AI+s3pWg9sO2Fp/x7ZvStB7Yd5Xqb9UmBGe2Fp/x7ZvStB7YdsLT/j6zelaD2w7yvU36pMCM9sLT/j2zelaD2w7YWn/Htm9K0Hth3lepv1SYEZ7YWn/Htm9K0Hth2wtP+PrN6VoPbDvK9TfqkwIz2wtP+PbN6VoPbDthaf8AHtm9K0Hth3lepv1SYEZ7YWn/AB7ZvStB7YdsLT/j6zelaD2w7yvU36pMRnaz3v37zLdfUKgdsLT/AI9s3pWg9sR7adrmxy2O9RRXq0Syy2i5RxRx3KikkkkfRTtZHGxsqq97nKiIiZVVVPCa8l6zWePoxa0TEv/Z;" vertex="1" parent="7">
                    <mxGeometry x="480" y="150" width="284.44" height="160" as="geometry"/>
                </mxCell>
                <mxCell id="9" value="volume of a sphere with JS" style="rounded=0;whiteSpace=wrap;html=1;" vertex="1" parent="7">
                    <mxGeometry y="20" width="770" height="40" as="geometry"/>
                </mxCell>
                <mxCell id="11" value="&lt;font style=&quot;font-size: 24px;&quot;&gt;formula&lt;/font&gt;" style="text;html=1;align=center;verticalAlign=middle;resizable=0;points=[];autosize=1;strokeColor=none;fillColor=none;" vertex="1" parent="7">
                    <mxGeometry x="5" y="80" width="100" height="40" as="geometry"/>
                </mxCell>
                <mxCell id="12" value="&lt;font style=&quot;font-size: 16px;&quot;&gt;v = 4/3&amp;nbsp;π r³&lt;/font&gt;" style="text;html=1;align=center;verticalAlign=middle;resizable=0;points=[];autosize=1;strokeColor=none;fillColor=none;" vertex="1" parent="7">
                    <mxGeometry x="10" y="130" width="100" height="30" as="geometry"/>
                </mxCell>
                <mxCell id="13" value="&lt;font style=&quot;font-size: 15px;&quot;&gt;enter the radius for the sphere&lt;/font&gt;" style="text;html=1;align=center;verticalAlign=middle;resizable=0;points=[];autosize=1;strokeColor=none;fillColor=none;" vertex="1" parent="7">
                    <mxGeometry x="10" y="200" width="220" height="30" as="geometry"/>
                </mxCell>
                <mxCell id="14" value="&lt;font style=&quot;font-size: 16px;&quot;&gt;radius&lt;/font&gt;" style="text;html=1;align=center;verticalAlign=middle;resizable=0;points=[];autosize=1;strokeColor=none;fillColor=none;" vertex="1" parent="7">
                    <mxGeometry x="10" y="260" width="70" height="30" as="geometry"/>
                </mxCell>
                <mxCell id="15" value="&lt;font style=&quot;font-size: 16px;&quot;&gt;cm&lt;/font&gt;" style="text;html=1;align=center;verticalAlign=middle;resizable=0;points=[];autosize=1;strokeColor=none;fillColor=none;" vertex="1" parent="7">
                    <mxGeometry x="220" y="260" width="40" height="30" as="geometry"/>
                </mxCell>
                <mxCell id="16" value="&lt;font style=&quot;font-size: 16px;&quot;&gt;the volume of the sphere is 36 cm³&lt;/font&gt;" style="text;html=1;align=center;verticalAlign=middle;resizable=0;points=[];autosize=1;strokeColor=none;fillColor=none;" vertex="1" parent="7">
                    <mxGeometry x="10" y="400" width="270" height="30" as="geometry"/>
                </mxCell>
                <mxCell id="17" value="&lt;font style=&quot;font-size: 16px;&quot;&gt;calculate&lt;/font&gt;" style="text;html=1;align=center;verticalAlign=middle;resizable=0;points=[];autosize=1;strokeColor=none;fillColor=none;" vertex="1" parent="7">
                    <mxGeometry x="15" y="340" width="90" height="30" as="geometry"/>
                </mxCell>
                <mxCell id="18" value="" style="rounded=1;whiteSpace=wrap;html=1;" vertex="1" parent="7">
                    <mxGeometry x="90" y="260" width="120" height="30" as="geometry"/>
                </mxCell>
            </root>
        </mxGraphModel>
    </diagram>
</mxfile>